0
SECTION
2
HEADER
9
$EXTMIN
10
 6.15999984741211E+0000
20
-1.54999995231628E+0000
9
$EXTMAX
10
 4.67000007629395E+0001
20
 3.26100006103516E+0001
0
ENDSEC
0
SECTION
2
TABLES
0
TABLE
2
LTYPE
70
1
0
LTYPE
2
CONTINUOUS
70
64
3
SOLID LINE
72
65
73
0
40
0.0
0
ENDTAB
0
TABLE
2
LAYER
70
5
0
LAYER
2
Links
70
0
62
7
6
CONTINUOUS
0
LAYER
2
Junctions
70
0
62
7
6
CONTINUOUS
0
LAYER
2
Tanks
70
0
62
7
6
CONTINUOUS
0
LAYER
2
Arrows
70
0
62
7
6
CONTINUOUS
0
LAYER
2
Labels
70
0
62
7
6
CONTINUOUS
0
ENDTAB
0
TABLE
2
VIEW
70
0
0
ENDTAB
0
ENDSEC
0
SECTION
2
ENTITIES
0
POLYLINE
8
Links
66
1
40
 5.01615293323994E-0002
41
 5.01615293323994E-0002
62
7
0
VERTEX
8
Links
10
 2.94099998474121E+0001
20
 2.72700004577637E+0001
30
0.0
42
 0.00000000000000E+0000
0
VERTEX
8
Links
10
 2.94400005340576E+0001
20
 2.69099998474121E+0001
30
0.0
42
 0.00000000000000E+0000
0
SEQEND
0
POLYLINE
8
Links
66
1
40
 5.01615293323994E-0002
41
 5.01615293323994E-0002
62
7
0
VERTEX
8
Links
10
 2.74599990844727E+0001
20
 9.84000015258789E+0000
30
0.0
42
 0.00000000000000E+0000
0
VERTEX
8
Links
10
 2.70200004577637E+0001
20
 9.81000041961670E+0000
30
0.0
42
 0.00000000000000E+0000
0
SEQEND
0
POLYLINE
8
Links
66
1
40
 5.01615293323994E-0002
41
 5.01615293323994E-0002
62
7
0
VERTEX
8
Links
10
 3.29900016784668E+0001
20
 3.45000004768372E+0000
30
0.0
42
 0.00000000000000E+0000
0
VERTEX
8
Links
10
 3.30099983215332E+0001
20
 3.00999999046326E+0000
30
0.0
42
 0.00000000000000E+0000
0
SEQEND
0
POLYLINE
8
Links
66
1
40
 5.01615293323994E-0002
41
 5.01615293323994E-0002
62
7
0
VERTEX
8
Links
10
 2.41499996185303E+0001
20
 3.10599994659424E+0001
30
0.0
42
 0.00000000000000E+0000
0
VERTEX
8
Links
10
 2.38999996185303E+0001
20
 2.99400005340576E+0001
30
0.0
42
 0.00000000000000E+0000
0
SEQEND
0
POLYLINE
8
Links
66
1
40
 5.01615293323994E-0002
41
 5.01615293323994E-0002
62
7
0
VERTEX
8
Links
10
 9.00000000000000E+0000
20
 2.78500003814697E+0001
30
0.0
42
 0.00000000000000E+0000
0
VERTEX
8
Links
10
 1.38100004196167E+0001
20
 2.29400005340576E+0001
30
0.0
42
 0.00000000000000E+0000
0
SEQEND
0
POLYLINE
8
Links
66
1
40
 5.01615293323994E-0002
41
 5.01615293323994E-0002
62
7
0
VERTEX
8
Links
10
 1.38100004196167E+0001
20
 2.29400005340576E+0001
30
0.0
42
 0.00000000000000E+0000
0
VERTEX
8
Links
10
 1.29600000381470E+0001
20
 2.13099994659424E+0001
30
0.0
42
 0.00000000000000E+0000
0
SEQEND
0
POLYLINE
8
Links
66
1
40
 5.01615293323994E-0002
41
 5.01615293323994E-0002
62
7
0
VERTEX
8
Links
10
 1.38100004196167E+0001
20
 2.29400005340576E+0001
30
0.0
42
 0.00000000000000E+0000
0
VERTEX
8
Links
10
 1.69699993133545E+0001
20
 2.12800006866455E+0001
30
0.0
42
 0.00000000000000E+0000
0
SEQEND
0
POLYLINE
8
Links
66
1
40
 5.01615293323994E-0002
41
 5.01615293323994E-0002
62
7
0
VERTEX
8
Links
10
 1.69699993133545E+0001
20
 2.12800006866455E+0001
30
0.0
42
 0.00000000000000E+0000
0
VERTEX
8
Links
10
 1.84500007629395E+0001
20
 2.04599990844727E+0001
30
0.0
42
 0.00000000000000E+0000
0
SEQEND
0
POLYLINE
8
Links
66
1
40
 5.01615293323994E-0002
41
 5.01615293323994E-0002
62
7
0
VERTEX
8
Links
10
 1.29600000381470E+0001
20
 2.13099994659424E+0001
30
0.0
42
 0.00000000000000E+0000
0
VERTEX
8
Links
10
 1.76399993896484E+0001
20
 1.89200000762939E+0001
30
0.0
42
 0.00000000000000E+0000
0
SEQEND
0
POLYLINE
8
Links
66
1
40
 5.01615293323994E-0002
41
 5.01615293323994E-0002
62
7
0
VERTEX
8
Links
10
 1.76399993896484E+0001
20
 1.89200000762939E+0001
30
0.0
42
 0.00000000000000E+0000
0
VERTEX
8
Links
10
 2.02099990844727E+0001
20
 1.75300006866455E+0001
30
0.0
42
 0.00000000000000E+0000
0
SEQEND
0
POLYLINE
8
Links
66
1
40
 5.01615293323994E-0002
41
 5.01615293323994E-0002
62
7
0
VERTEX
8
Links
10
 2.09799995422363E+0001
20
 1.91800003051758E+0001
30
0.0
42
 0.00000000000000E+0000
0
VERTEX
8
Links
10
 2.02099990844727E+0001
20
 1.75300006866455E+0001
30
0.0
42
 0.00000000000000E+0000
0
SEQEND
0
POLYLINE
8
Links
66
1
40
 5.01615293323994E-0002
41
 5.01615293323994E-0002
62
7
0
VERTEX
8
Links
10
 2.02099990844727E+0001
20
 1.75300006866455E+0001
30
0.0
42
 0.00000000000000E+0000
0
VERTEX
8
Links
10
 2.20400009155273E+0001
20
 1.66100006103516E+0001
30
0.0
42
 0.00000000000000E+0000
0
SEQEND
0
POLYLINE
8
Links
66
1
40
 5.01615293323994E-0002
41
 5.01615293323994E-0002
62
7
0
VERTEX
8
Links
10
 2.09799995422363E+0001
20
 1.91800003051758E+0001
30
0.0
42
 0.00000000000000E+0000
0
VERTEX
8
Links
10
 2.20400009155273E+0001
20
 1.66100006103516E+0001
30
0.0
42
 0.00000000000000E+0000
0
SEQEND
0
POLYLINE
8
Links
66
1
40
 5.01615293323994E-0002
41
 5.01615293323994E-0002
62
7
0
VERTEX
8
Links
10
 1.84500007629395E+0001
20
 2.04599990844727E+0001
30
0.0
42
 0.00000000000000E+0000
0
VERTEX
8
Links
10
 2.09799995422363E+0001
20
 1.91800003051758E+0001
30
0.0
42
 0.00000000000000E+0000
0
SEQEND
0
POLYLINE
8
Links
66
1
40
 5.01615293323994E-0002
41
 5.01615293323994E-0002
62
7
0
VERTEX
8
Links
10
 2.20400009155273E+0001
20
 1.66100006103516E+0001
30
0.0
42
 0.00000000000000E+0000
0
VERTEX
8
Links
10
 2.28799991607666E+0001
20
 1.43500003814697E+0001
30
0.0
42
 0.00000000000000E+0000
0
SEQEND
0
POLYLINE
8
Links
66
1
40
 5.01615293323994E-0002
41
 5.01615293323994E-0002
62
7
0
VERTEX
8
Links
10
 2.03199996948242E+0001
20
 2.15699996948242E+0001
30
0.0
42
 0.00000000000000E+0000
0
VERTEX
8
Links
10
 1.69699993133545E+0001
20
 2.12800006866455E+0001
30
0.0
42
 0.00000000000000E+0000
0
SEQEND
0
POLYLINE
8
Links
66
1
40
 5.01615293323994E-0002
41
 5.01615293323994E-0002
62
7
0
VERTEX
8
Links
10
 2.09799995422363E+0001
20
 1.91800003051758E+0001
30
0.0
42
 0.00000000000000E+0000
0
VERTEX
8
Links
10
 2.16900005340576E+0001
20
 2.12800006866455E+0001
30
0.0
42
 0.00000000000000E+0000
0
SEQEND
0
POLYLINE
8
Links
66
1
40
 5.01615293323994E-0002
41
 5.01615293323994E-0002
62
7
0
VERTEX
8
Links
10
 2.37000007629395E+0001
20
 2.27600002288818E+0001
30
0.0
42
 0.00000000000000E+0000
0
VERTEX
8
Links
10
 2.20799999237061E+0001
20
 2.31000003814697E+0001
30
0.0
42
 0.00000000000000E+0000
0
SEQEND
0
POLYLINE
8
Links
66
1
40
 5.01615293323994E-0002
41
 5.01615293323994E-0002
62
7
0
VERTEX
8
Links
10
 2.20799999237061E+0001
20
 2.31000003814697E+0001
30
0.0
42
 0.00000000000000E+0000
0
VERTEX
8
Links
10
 2.16900005340576E+0001
20
 2.12800006866455E+0001
30
0.0
42
 0.00000000000000E+0000
0
SEQEND
0
POLYLINE
8
Links
66
1
40
 5.01615293323994E-0002
41
 5.01615293323994E-0002
62
7
0
VERTEX
8
Links
10
 2.35400009155273E+0001
20
 2.55000000000000E+0001
30
0.0
42
 0.00000000000000E+0000
0
VERTEX
8
Links
10
 2.20799999237061E+0001
20
 2.31000003814697E+0001
30
0.0
42
 0.00000000000000E+0000
0
SEQEND
0
POLYLINE
8
Links
66
1
40
 5.01615293323994E-0002
41
 5.01615293323994E-0002
62
7
0
VERTEX
8
Links
10
 2.35400009155273E+0001
20
 2.55000000000000E+0001
30
0.0
42
 0.00000000000000E+0000
0
VERTEX
8
Links
10
 2.37000007629395E+0001
20
 2.27600002288818E+0001
30
0.0
42
 0.00000000000000E+0000
0
SEQEND
0
POLYLINE
8
Links
66
1
40
 5.01615293323994E-0002
41
 5.01615293323994E-0002
62
7
0
VERTEX
8
Links
10
 2.33700008392334E+0001
20
 2.73099994659424E+0001
30
0.0
42
 0.00000000000000E+0000
0
VERTEX
8
Links
10
 2.35400009155273E+0001
20
 2.55000000000000E+0001
30
0.0
42
 0.00000000000000E+0000
0
SEQEND
0
POLYLINE
8
Links
66
1
40
 5.01615293323994E-0002
41
 5.01615293323994E-0002
62
7
0
VERTEX
8
Links
10
 2.35400009155273E+0001
20
 2.55000000000000E+0001
30
0.0
42
 0.00000000000000E+0000
0
VERTEX
8
Links
10
 2.45900001525879E+0001
20
 2.56399993896484E+0001
30
0.0
42
 0.00000000000000E+0000
0
SEQEND
0
POLYLINE
8
Links
66
1
40
 5.01615293323994E-0002
41
 5.01615293323994E-0002
62
7
0
VERTEX
8
Links
10
 2.45900001525879E+0001
20
 2.56399993896484E+0001
30
0.0
42
 0.00000000000000E+0000
0
VERTEX
8
Links
10
 2.92900009155273E+0001
20
 2.63999996185303E+0001
30
0.0
42
 0.00000000000000E+0000
0
SEQEND
0
POLYLINE
8
Links
66
1
40
 5.01615293323994E-0002
41
 5.01615293323994E-0002
62
7
0
VERTEX
8
Links
10
 2.94400005340576E+0001
20
 2.69099998474121E+0001
30
0.0
42
 0.00000000000000E+0000
0
VERTEX
8
Links
10
 2.92900009155273E+0001
20
 2.63999996185303E+0001
30
0.0
42
 0.00000000000000E+0000
0
SEQEND
0
POLYLINE
8
Links
66
1
40
 5.01615293323994E-0002
41
 5.01615293323994E-0002
62
7
0
VERTEX
8
Links
10
 2.92900009155273E+0001
20
 2.63999996185303E+0001
30
0.0
42
 0.00000000000000E+0000
0
VERTEX
8
Links
10
 3.03199996948242E+0001
20
 2.63899993896484E+0001
30
0.0
42
 0.00000000000000E+0000
0
SEQEND
0
POLYLINE
8
Links
66
1
40
 5.01615293323994E-0002
41
 5.01615293323994E-0002
62
7
0
VERTEX
8
Links
10
 3.03199996948242E+0001
20
 2.63899993896484E+0001
30
0.0
42
 0.00000000000000E+0000
0
VERTEX
8
Links
10
 3.78899993896484E+0001
20
 2.95499992370605E+0001
30
0.0
42
 0.00000000000000E+0000
0
SEQEND
0
POLYLINE
8
Links
66
1
40
 5.01615293323994E-0002
41
 5.01615293323994E-0002
62
7
0
VERTEX
8
Links
10
 3.03199996948242E+0001
20
 2.63899993896484E+0001
30
0.0
42
 0.00000000000000E+0000
0
VERTEX
8
Links
10
 3.32799987792969E+0001
20
 2.45400009155273E+0001
30
0.0
42
 0.00000000000000E+0000
0
SEQEND
0
POLYLINE
8
Links
66
1
40
 5.01615293323994E-0002
41
 5.01615293323994E-0002
62
7
0
VERTEX
8
Links
10
 3.32799987792969E+0001
20
 2.45400009155273E+0001
30
0.0
42
 0.00000000000000E+0000
0
VERTEX
8
Links
10
 3.56800003051758E+0001
20
 2.30799999237061E+0001
30
0.0
42
 0.00000000000000E+0000
0
SEQEND
0
POLYLINE
8
Links
66
1
40
 5.01615293323994E-0002
41
 5.01615293323994E-0002
62
7
0
VERTEX
8
Links
10
 3.74700012207031E+0001
20
 2.19699993133545E+0001
30
0.0
42
 0.00000000000000E+0000
0
VERTEX
8
Links
10
 3.56800003051758E+0001
20
 2.30799999237061E+0001
30
0.0
42
 0.00000000000000E+0000
0
SEQEND
0
POLYLINE
8
Links
66
1
40
 5.01615293323994E-0002
41
 5.01615293323994E-0002
62
7
0
VERTEX
8
Links
10
 3.86800003051758E+0001
20
 2.37600002288818E+0001
30
0.0
42
 0.00000000000000E+0000
0
VERTEX
8
Links
10
 3.74700012207031E+0001
20
 2.19699993133545E+0001
30
0.0
42
 0.00000000000000E+0000
0
SEQEND
0
POLYLINE
8
Links
66
1
40
 5.01615293323994E-0002
41
 5.01615293323994E-0002
62
7
0
VERTEX
8
Links
10
 3.30200004577637E+0001
20
 1.92900009155273E+0001
30
0.0
42
 0.00000000000000E+0000
0
VERTEX
8
Links
10
 3.56800003051758E+0001
20
 2.30799999237061E+0001
30
0.0
42
 0.00000000000000E+0000
0
SEQEND
0
POLYLINE
8
Links
66
1
40
 5.01615293323994E-0002
41
 5.01615293323994E-0002
62
7
0
VERTEX
8
Links
10
 3.02399997711182E+0001
20
 2.03799991607666E+0001
30
0.0
42
 0.00000000000000E+0000
0
VERTEX
8
Links
10
 3.30200004577637E+0001
20
 1.92900009155273E+0001
30
0.0
42
 0.00000000000000E+0000
0
SEQEND
0
POLYLINE
8
Links
66
1
40
 5.01615293323994E-0002
41
 5.01615293323994E-0002
62
7
0
VERTEX
8
Links
10
 3.02399997711182E+0001
20
 2.03799991607666E+0001
30
0.0
42
 0.00000000000000E+0000
0
VERTEX
8
Links
10
 2.96200008392334E+0001
20
 2.07399997711182E+0001
30
0.0
42
 0.00000000000000E+0000
0
SEQEND
0
POLYLINE
8
Links
66
1
40
 5.01615293323994E-0002
41
 5.01615293323994E-0002
62
7
0
VERTEX
8
Links
10
 2.96200008392334E+0001
20
 2.07399997711182E+0001
30
0.0
42
 0.00000000000000E+0000
0
VERTEX
8
Links
10
 2.82900009155273E+0001
20
 2.13899993896484E+0001
30
0.0
42
 0.00000000000000E+0000
0
SEQEND
0
POLYLINE
8
Links
66
1
40
 5.01615293323994E-0002
41
 5.01615293323994E-0002
62
7
0
VERTEX
8
Links
10
 2.82900009155273E+0001
20
 2.13899993896484E+0001
30
0.0
42
 0.00000000000000E+0000
0
VERTEX
8
Links
10
 2.81299991607666E+0001
20
 2.26299991607666E+0001
30
0.0
42
 0.00000000000000E+0000
0
SEQEND
0
POLYLINE
8
Links
66
1
40
 5.01615293323994E-0002
41
 5.01615293323994E-0002
62
7
0
VERTEX
8
Links
10
 2.45900001525879E+0001
20
 2.56399993896484E+0001
30
0.0
42
 0.00000000000000E+0000
0
VERTEX
8
Links
10
 2.81299991607666E+0001
20
 2.26299991607666E+0001
30
0.0
42
 0.00000000000000E+0000
0
SEQEND
0
POLYLINE
8
Links
66
1
40
 5.01615293323994E-0002
41
 5.01615293323994E-0002
62
7
0
VERTEX
8
Links
10
 2.37000007629395E+0001
20
 2.27600002288818E+0001
30
0.0
42
 0.00000000000000E+0000
0
VERTEX
8
Links
10
 2.82900009155273E+0001
20
 2.13899993896484E+0001
30
0.0
42
 0.00000000000000E+0000
0
SEQEND
0
POLYLINE
8
Links
66
1
40
 5.01615293323994E-0002
41
 5.01615293323994E-0002
62
7
0
VERTEX
8
Links
10
 2.37000007629395E+0001
20
 2.27600002288818E+0001
30
0.0
42
 0.00000000000000E+0000
0
VERTEX
8
Links
10
 2.48500003814697E+0001
20
 2.01599998474121E+0001
30
0.0
42
 0.00000000000000E+0000
0
SEQEND
0
POLYLINE
8
Links
66
1
40
 5.01615293323994E-0002
41
 5.01615293323994E-0002
62
7
0
VERTEX
8
Links
10
 2.48500003814697E+0001
20
 2.01599998474121E+0001
30
0.0
42
 0.00000000000000E+0000
0
VERTEX
8
Links
10
 2.31200008392334E+0001
20
 1.75000000000000E+0001
30
0.0
42
 0.00000000000000E+0000
0
SEQEND
0
POLYLINE
8
Links
66
1
40
 5.01615293323994E-0002
41
 5.01615293323994E-0002
62
7
0
VERTEX
8
Links
10
 2.31200008392334E+0001
20
 1.75000000000000E+0001
30
0.0
42
 0.00000000000000E+0000
0
VERTEX
8
Links
10
 2.51000003814697E+0001
20
 1.52799997329712E+0001
30
0.0
42
 0.00000000000000E+0000
0
SEQEND
0
POLYLINE
8
Links
66
1
40
 5.01615293323994E-0002
41
 5.01615293323994E-0002
62
7
0
VERTEX
8
Links
10
 2.51000003814697E+0001
20
 1.52799997329712E+0001
30
0.0
42
 0.00000000000000E+0000
0
VERTEX
8
Links
10
 2.53899993896484E+0001
20
 1.49799995422363E+0001
30
0.0
42
 0.00000000000000E+0000
0
SEQEND
0
POLYLINE
8
Links
66
1
40
 5.01615293323994E-0002
41
 5.01615293323994E-0002
62
7
0
VERTEX
8
Links
10
 2.53899993896484E+0001
20
 1.49799995422363E+0001
30
0.0
42
 0.00000000000000E+0000
0
VERTEX
8
Links
10
 2.59799995422363E+0001
20
 1.51400003433228E+0001
30
0.0
42
 0.00000000000000E+0000
0
SEQEND
0
POLYLINE
8
Links
66
1
40
 5.01615293323994E-0002
41
 5.01615293323994E-0002
62
7
0
VERTEX
8
Links
10
 2.59799995422363E+0001
20
 1.51400003433228E+0001
30
0.0
42
 0.00000000000000E+0000
0
VERTEX
8
Links
10
 2.64799995422363E+0001
20
 1.51300001144409E+0001
30
0.0
42
 0.00000000000000E+0000
0
SEQEND
0
POLYLINE
8
Links
66
1
40
 5.01615293323994E-0002
41
 5.01615293323994E-0002
62
7
0
VERTEX
8
Links
10
 2.53899993896484E+0001
20
 1.36000003814697E+0001
30
0.0
42
 0.00000000000000E+0000
0
VERTEX
8
Links
10
 2.56800003051758E+0001
20
 1.27399997711182E+0001
30
0.0
42
 0.00000000000000E+0000
0
SEQEND
0
POLYLINE
8
Links
66
1
40
 5.01615293323994E-0002
41
 5.01615293323994E-0002
62
7
0
VERTEX
8
Links
10
 2.58799991607666E+0001
20
 1.29799995422363E+0001
30
0.0
42
 0.00000000000000E+0000
0
VERTEX
8
Links
10
 2.56800003051758E+0001
20
 1.27399997711182E+0001
30
0.0
42
 0.00000000000000E+0000
0
SEQEND
0
POLYLINE
8
Links
66
1
40
 5.01615293323994E-0002
41
 5.01615293323994E-0002
62
7
0
VERTEX
8
Links
10
 2.36399993896484E+0001
20
 1.10399999618530E+0001
30
0.0
42
 0.00000000000000E+0000
0
VERTEX
8
Links
10
 2.37999992370605E+0001
20
 1.08999996185303E+0001
30
0.0
42
 0.00000000000000E+0000
0
SEQEND
0
POLYLINE
8
Links
66
1
40
 5.01615293323994E-0002
41
 5.01615293323994E-0002
62
7
0
VERTEX
8
Links
10
 2.56800003051758E+0001
20
 1.27399997711182E+0001
30
0.0
42
 0.00000000000000E+0000
0
VERTEX
8
Links
10
 2.66499996185303E+0001
20
 1.18000001907349E+0001
30
0.0
42
 0.00000000000000E+0000
0
SEQEND
0
POLYLINE
8
Links
66
1
40
 5.01615293323994E-0002
41
 5.01615293323994E-0002
62
7
0
VERTEX
8
Links
10
 2.66499996185303E+0001
20
 1.18000001907349E+0001
30
0.0
42
 0.00000000000000E+0000
0
VERTEX
8
Links
10
 2.68700008392334E+0001
20
 1.15900001525879E+0001
30
0.0
42
 0.00000000000000E+0000
0
SEQEND
0
POLYLINE
8
Links
66
1
40
 5.01615293323994E-0002
41
 5.01615293323994E-0002
62
7
0
VERTEX
8
Links
10
 2.59699993133545E+0001
20
 1.10000000000000E+0001
30
0.0
42
 0.00000000000000E+0000
0
VERTEX
8
Links
10
 2.66499996185303E+0001
20
 1.18000001907349E+0001
30
0.0
42
 0.00000000000000E+0000
0
SEQEND
0
POLYLINE
8
Links
66
1
40
 5.01615293323994E-0002
41
 5.01615293323994E-0002
62
7
0
VERTEX
8
Links
10
 2.54599990844727E+0001
20
 1.05200004577637E+0001
30
0.0
42
 0.00000000000000E+0000
0
VERTEX
8
Links
10
 2.57199993133545E+0001
20
 1.07399997711182E+0001
30
0.0
42
 0.00000000000000E+0000
0
SEQEND
0
POLYLINE
8
Links
66
1
40
 5.01615293323994E-0002
41
 5.01615293323994E-0002
62
7
0
VERTEX
8
Links
10
 2.57099990844727E+0001
20
 1.03999996185303E+0001
30
0.0
42
 0.00000000000000E+0000
0
VERTEX
8
Links
10
 2.54500007629395E+0001
20
 1.01800003051758E+0001
30
0.0
42
 0.00000000000000E+0000
0
SEQEND
0
POLYLINE
8
Links
66
1
40
 5.01615293323994E-0002
41
 5.01615293323994E-0002
62
7
0
VERTEX
8
Links
10
 2.70200004577637E+0001
20
 9.81000041961670E+0000
30
0.0
42
 0.00000000000000E+0000
0
VERTEX
8
Links
10
 2.57099990844727E+0001
20
 1.03999996185303E+0001
30
0.0
42
 0.00000000000000E+0000
0
SEQEND
0
POLYLINE
8
Links
66
1
40
 5.01615293323994E-0002
41
 5.01615293323994E-0002
62
7
0
VERTEX
8
Links
10
 2.50100002288818E+0001
20
 9.67000007629395E+0000
30
0.0
42
 0.00000000000000E+0000
0
VERTEX
8
Links
10
 2.51499996185303E+0001
20
 9.52000045776367E+0000
30
0.0
42
 0.00000000000000E+0000
0
SEQEND
0
POLYLINE
8
Links
66
1
40
 5.01615293323994E-0002
41
 5.01615293323994E-0002
62
7
0
VERTEX
8
Links
10
 2.54500007629395E+0001
20
 1.01800003051758E+0001
30
0.0
42
 0.00000000000000E+0000
0
VERTEX
8
Links
10
 2.50100002288818E+0001
20
 9.67000007629395E+0000
30
0.0
42
 0.00000000000000E+0000
0
SEQEND
0
POLYLINE
8
Links
66
1
40
 5.01615293323994E-0002
41
 5.01615293323994E-0002
62
7
0
VERTEX
8
Links
10
 2.51499996185303E+0001
20
 9.52000045776367E+0000
30
0.0
42
 0.00000000000000E+0000
0
VERTEX
8
Links
10
 2.92000007629395E+0001
20
 6.46000003814697E+0000
30
0.0
42
 0.00000000000000E+0000
0
SEQEND
0
POLYLINE
8
Links
66
1
40
 5.01615293323994E-0002
41
 5.01615293323994E-0002
62
7
0
VERTEX
8
Links
10
 2.37999992370605E+0001
20
 1.08999996185303E+0001
30
0.0
42
 0.00000000000000E+0000
0
VERTEX
8
Links
10
 2.50100002288818E+0001
20
 9.67000007629395E+0000
30
0.0
42
 0.00000000000000E+0000
0
SEQEND
0
POLYLINE
8
Links
66
1
40
 5.01615293323994E-0002
41
 5.01615293323994E-0002
62
7
0
VERTEX
8
Links
10
 2.41499996185303E+0001
20
 1.13699998855591E+0001
30
0.0
42
 0.00000000000000E+0000
0
VERTEX
8
Links
10
 2.54500007629395E+0001
20
 1.01800003051758E+0001
30
0.0
42
 0.00000000000000E+0000
0
SEQEND
0
POLYLINE
8
Links
66
1
40
 5.01615293323994E-0002
41
 5.01615293323994E-0002
62
7
0
VERTEX
8
Links
10
 2.41499996185303E+0001
20
 1.13699998855591E+0001
30
0.0
42
 0.00000000000000E+0000
0
VERTEX
8
Links
10
 2.36399993896484E+0001
20
 1.10399999618530E+0001
30
0.0
42
 0.00000000000000E+0000
0
SEQEND
0
POLYLINE
8
Links
66
1
40
 5.01615293323994E-0002
41
 5.01615293323994E-0002
62
7
0
VERTEX
8
Links
10
 2.56800003051758E+0001
20
 1.27399997711182E+0001
30
0.0
42
 0.00000000000000E+0000
0
VERTEX
8
Links
10
 2.50300006866455E+0001
20
 1.21400003433228E+0001
30
0.0
42
 0.00000000000000E+0000
0
SEQEND
0
POLYLINE
8
Links
66
1
40
 5.01615293323994E-0002
41
 5.01615293323994E-0002
62
7
0
VERTEX
8
Links
10
 2.21000003814697E+0001
20
 1.40699996948242E+0001
30
0.0
42
 0.00000000000000E+0000
0
VERTEX
8
Links
10
 2.36399993896484E+0001
20
 1.10399999618530E+0001
30
0.0
42
 0.00000000000000E+0000
0
SEQEND
0
POLYLINE
8
Links
66
1
40
 5.01615293323994E-0002
41
 5.01615293323994E-0002
62
7
0
VERTEX
8
Links
10
 2.33799991607666E+0001
20
 1.29499998092651E+0001
30
0.0
42
 0.00000000000000E+0000
0
VERTEX
8
Links
10
 2.41499996185303E+0001
20
 1.13699998855591E+0001
30
0.0
42
 0.00000000000000E+0000
0
SEQEND
0
POLYLINE
8
Links
66
1
40
 5.01615293323994E-0002
41
 5.01615293323994E-0002
62
7
0
VERTEX
8
Links
10
 2.21000003814697E+0001
20
 1.40699996948242E+0001
30
0.0
42
 0.00000000000000E+0000
0
VERTEX
8
Links
10
 2.28799991607666E+0001
20
 1.43500003814697E+0001
30
0.0
42
 0.00000000000000E+0000
0
SEQEND
0
POLYLINE
8
Links
66
1
40
 5.01615293323994E-0002
41
 5.01615293323994E-0002
62
7
0
VERTEX
8
Links
10
 2.28799991607666E+0001
20
 1.43500003814697E+0001
30
0.0
42
 0.00000000000000E+0000
0
VERTEX
8
Links
10
 2.31800003051758E+0001
20
 1.47200002670288E+0001
30
0.0
42
 0.00000000000000E+0000
0
SEQEND
0
POLYLINE
8
Links
66
1
40
 5.01615293323994E-0002
41
 5.01615293323994E-0002
62
7
0
VERTEX
8
Links
10
 2.51000003814697E+0001
20
 1.52799997329712E+0001
30
0.0
42
 0.00000000000000E+0000
0
VERTEX
8
Links
10
 2.31800003051758E+0001
20
 1.47200002670288E+0001
30
0.0
42
 0.00000000000000E+0000
0
SEQEND
0
POLYLINE
8
Links
66
1
40
 5.01615293323994E-0002
41
 5.01615293323994E-0002
62
7
0
VERTEX
8
Links
10
 2.09699993133545E+0001
20
 1.51800003051758E+0001
30
0.0
42
 0.00000000000000E+0000
0
VERTEX
8
Links
10
 2.21000003814697E+0001
20
 1.40699996948242E+0001
30
0.0
42
 0.00000000000000E+0000
0
SEQEND
0
POLYLINE
8
Links
66
1
40
 5.01615293323994E-0002
41
 5.01615293323994E-0002
62
7
0
VERTEX
8
Links
10
 2.02099990844727E+0001
20
 1.75300006866455E+0001
30
0.0
42
 0.00000000000000E+0000
0
VERTEX
8
Links
10
 2.09699993133545E+0001
20
 1.51800003051758E+0001
30
0.0
42
 0.00000000000000E+0000
0
SEQEND
0
POLYLINE
8
Links
66
1
40
 5.01615293323994E-0002
41
 5.01615293323994E-0002
62
7
0
VERTEX
8
Links
10
 2.68700008392334E+0001
20
 1.15900001525879E+0001
30
0.0
42
 0.00000000000000E+0000
0
VERTEX
8
Links
10
 2.94200000762939E+0001
20
 8.43999958038330E+0000
30
0.0
42
 0.00000000000000E+0000
0
SEQEND
0
POLYLINE
8
Links
66
1
40
 5.01615293323994E-0002
41
 5.01615293323994E-0002
62
7
0
VERTEX
8
Links
10
 2.94200000762939E+0001
20
 8.43999958038330E+0000
30
0.0
42
 0.00000000000000E+0000
0
VERTEX
8
Links
10
 3.08899993896484E+0001
20
 8.56999969482422E+0000
30
0.0
42
 0.00000000000000E+0000
0
SEQEND
0
POLYLINE
8
Links
66
1
40
 5.01615293323994E-0002
41
 5.01615293323994E-0002
62
7
0
VERTEX
8
Links
10
 3.08899993896484E+0001
20
 8.56999969482422E+0000
30
0.0
42
 0.00000000000000E+0000
0
VERTEX
8
Links
10
 3.11399993896484E+0001
20
 8.89000034332275E+0000
30
0.0
42
 0.00000000000000E+0000
0
SEQEND
0
POLYLINE
8
Links
66
1
40
 5.01615293323994E-0002
41
 5.01615293323994E-0002
62
7
0
VERTEX
8
Links
10
 2.94200000762939E+0001
20
 8.43999958038330E+0000
30
0.0
42
 0.00000000000000E+0000
0
VERTEX
8
Links
10
 2.91599998474121E+0001
20
 7.38000011444092E+0000
30
0.0
42
 0.00000000000000E+0000
0
SEQEND
0
POLYLINE
8
Links
66
1
40
 5.01615293323994E-0002
41
 5.01615293323994E-0002
62
7
0
VERTEX
8
Links
10
 2.92000007629395E+0001
20
 6.46000003814697E+0000
30
0.0
42
 0.00000000000000E+0000
0
VERTEX
8
Links
10
 3.10000000000000E+0001
20
 6.61000013351440E+0000
30
0.0
42
 0.00000000000000E+0000
0
SEQEND
0
POLYLINE
8
Links
66
1
40
 5.01615293323994E-0002
41
 5.01615293323994E-0002
62
7
0
VERTEX
8
Links
10
 3.10000000000000E+0001
20
 6.61000013351440E+0000
30
0.0
42
 0.00000000000000E+0000
0
VERTEX
8
Links
10
 3.16599998474121E+0001
20
 6.63999986648560E+0000
30
0.0
42
 0.00000000000000E+0000
0
SEQEND
0
POLYLINE
8
Links
66
1
40
 5.01615293323994E-0002
41
 5.01615293323994E-0002
62
7
0
VERTEX
8
Links
10
 3.10699996948242E+0001
20
 8.28999996185303E+0000
30
0.0
42
 0.00000000000000E+0000
0
VERTEX
8
Links
10
 3.10000000000000E+0001
20
 6.61000013351440E+0000
30
0.0
42
 0.00000000000000E+0000
0
SEQEND
0
POLYLINE
8
Links
66
1
40
 5.01615293323994E-0002
41
 5.01615293323994E-0002
62
7
0
VERTEX
8
Links
10
 3.16599998474121E+0001
20
 6.63999986648560E+0000
30
0.0
42
 0.00000000000000E+0000
0
VERTEX
8
Links
10
 3.25400009155273E+0001
20
 6.80999994277954E+0000
30
0.0
42
 0.00000000000000E+0000
0
SEQEND
0
POLYLINE
8
Links
66
1
40
 5.01615293323994E-0002
41
 5.01615293323994E-0002
62
7
0
VERTEX
8
Links
10
 3.25400009155273E+0001
20
 6.80999994277954E+0000
30
0.0
42
 0.00000000000000E+0000
0
VERTEX
8
Links
10
 3.37599983215332E+0001
20
 6.59000015258789E+0000
30
0.0
42
 0.00000000000000E+0000
0
SEQEND
0
POLYLINE
8
Links
66
1
40
 5.01615293323994E-0002
41
 5.01615293323994E-0002
62
7
0
VERTEX
8
Links
10
 3.37599983215332E+0001
20
 6.59000015258789E+0000
30
0.0
42
 0.00000000000000E+0000
0
VERTEX
8
Links
10
 3.42000007629395E+0001
20
 5.53999996185303E+0000
30
0.0
42
 0.00000000000000E+0000
0
SEQEND
0
POLYLINE
8
Links
66
1
40
 5.01615293323994E-0002
41
 5.01615293323994E-0002
62
7
0
VERTEX
8
Links
10
 3.42000007629395E+0001
20
 5.53999996185303E+0000
30
0.0
42
 0.00000000000000E+0000
0
VERTEX
8
Links
10
 3.52599983215332E+0001
20
 6.15999984741211E+0000
30
0.0
42
 0.00000000000000E+0000
0
SEQEND
0
POLYLINE
8
Links
66
1
40
 5.01615293323994E-0002
41
 5.01615293323994E-0002
62
7
0
VERTEX
8
Links
10
 3.52599983215332E+0001
20
 6.15999984741211E+0000
30
0.0
42
 0.00000000000000E+0000
0
VERTEX
8
Links
10
 3.99500007629395E+0001
20
 8.72999954223633E+0000
30
0.0
42
 0.00000000000000E+0000
0
SEQEND
0
POLYLINE
8
Links
66
1
40
 5.01615293323994E-0002
41
 5.01615293323994E-0002
62
7
0
VERTEX
8
Links
10
 3.99500007629395E+0001
20
 8.72999954223633E+0000
30
0.0
42
 0.00000000000000E+0000
0
VERTEX
8
Links
10
 4.21100006103516E+0001
20
 8.67000007629395E+0000
30
0.0
42
 0.00000000000000E+0000
0
SEQEND
0
POLYLINE
8
Links
66
1
40
 5.01615293323994E-0002
41
 5.01615293323994E-0002
62
7
0
VERTEX
8
Links
10
 4.21100006103516E+0001
20
 8.67000007629395E+0000
30
0.0
42
 0.00000000000000E+0000
0
VERTEX
8
Links
10
 4.48600006103516E+0001
20
 9.31999969482422E+0000
30
0.0
42
 0.00000000000000E+0000
0
SEQEND
0
POLYLINE
8
Links
66
1
40
 5.01615293323994E-0002
41
 5.01615293323994E-0002
62
7
0
VERTEX
8
Links
10
 4.21100006103516E+0001
20
 8.67000007629395E+0000
30
0.0
42
 0.00000000000000E+0000
0
VERTEX
8
Links
10
 4.35299987792969E+0001
20
 7.38000011444092E+0000
30
0.0
42
 0.00000000000000E+0000
0
SEQEND
0
POLYLINE
8
Links
66
1
40
 5.01615293323994E-0002
41
 5.01615293323994E-0002
62
7
0
VERTEX
8
Links
10
 3.52599983215332E+0001
20
 6.15999984741211E+0000
30
0.0
42
 0.00000000000000E+0000
0
VERTEX
8
Links
10
 3.61599998474121E+0001
20
 3.49000000953674E+0000
30
0.0
42
 0.00000000000000E+0000
0
SEQEND
0
POLYLINE
8
Links
66
1
40
 5.01615293323994E-0002
41
 5.01615293323994E-0002
62
7
0
VERTEX
8
Links
10
 3.61599998474121E+0001
20
 3.49000000953674E+0000
30
0.0
42
 0.00000000000000E+0000
0
VERTEX
8
Links
10
 3.83800010681152E+0001
20
 2.53999996185303E+0000
30
0.0
42
 0.00000000000000E+0000
0
SEQEND
0
POLYLINE
8
Links
66
1
40
 5.01615293323994E-0002
41
 5.01615293323994E-0002
62
7
0
VERTEX
8
Links
10
 3.42000007629395E+0001
20
 5.53999996185303E+0000
30
0.0
42
 0.00000000000000E+0000
0
VERTEX
8
Links
10
 3.53699989318848E+0001
20
 3.07999992370605E+0000
30
0.0
42
 0.00000000000000E+0000
0
SEQEND
0
POLYLINE
8
Links
66
1
40
 5.01615293323994E-0002
41
 5.01615293323994E-0002
62
7
0
VERTEX
8
Links
10
 3.53699989318848E+0001
20
 3.07999992370605E+0000
30
0.0
42
 0.00000000000000E+0000
0
VERTEX
8
Links
10
 3.61599998474121E+0001
20
 3.49000000953674E+0000
30
0.0
42
 0.00000000000000E+0000
0
SEQEND
0
POLYLINE
8
Links
66
1
40
 5.01615293323994E-0002
41
 5.01615293323994E-0002
62
7
0
VERTEX
8
Links
10
 3.53699989318848E+0001
20
 3.07999992370605E+0000
30
0.0
42
 0.00000000000000E+0000
0
VERTEX
8
Links
10
 3.57599983215332E+0001
20
 2.30999994277954E+0000
30
0.0
42
 0.00000000000000E+0000
0
SEQEND
0
POLYLINE
8
Links
66
1
40
 5.01615293323994E-0002
41
 5.01615293323994E-0002
62
7
0
VERTEX
8
Links
10
 3.57599983215332E+0001
20
 2.30999994277954E+0000
30
0.0
42
 0.00000000000000E+0000
0
VERTEX
8
Links
10
 3.58699989318848E+0001
20
 2.10999989509583E+0000
30
0.0
42
 0.00000000000000E+0000
0
SEQEND
0
POLYLINE
8
Links
66
1
40
 5.01615293323994E-0002
41
 5.01615293323994E-0002
62
7
0
VERTEX
8
Links
10
 3.58699989318848E+0001
20
 2.10999989509583E+0000
30
0.0
42
 0.00000000000000E+0000
0
VERTEX
8
Links
10
 3.70400009155273E+0001
20
 0.00000000000000E+0000
30
0.0
42
 0.00000000000000E+0000
0
SEQEND
0
POLYLINE
8
Links
66
1
40
 5.01615293323994E-0002
41
 5.01615293323994E-0002
62
7
0
VERTEX
8
Links
10
 3.58699989318848E+0001
20
 2.10999989509583E+0000
30
0.0
42
 0.00000000000000E+0000
0
VERTEX
8
Links
10
 3.50200004577637E+0001
20
 2.04999995231628E+0000
30
0.0
42
 0.00000000000000E+0000
0
SEQEND
0
POLYLINE
8
Links
66
1
40
 5.01615293323994E-0002
41
 5.01615293323994E-0002
62
7
0
VERTEX
8
Links
10
 3.57599983215332E+0001
20
 2.30999994277954E+0000
30
0.0
42
 0.00000000000000E+0000
0
VERTEX
8
Links
10
 3.50200004577637E+0001
20
 1.80999994277954E+0000
30
0.0
42
 0.00000000000000E+0000
0
SEQEND
0
POLYLINE
8
Links
66
1
40
 5.01615293323994E-0002
41
 5.01615293323994E-0002
62
7
0
VERTEX
8
Links
10
 3.50200004577637E+0001
20
 2.04999995231628E+0000
30
0.0
42
 0.00000000000000E+0000
0
VERTEX
8
Links
10
 3.50200004577637E+0001
20
 1.80999994277954E+0000
30
0.0
42
 0.00000000000000E+0000
0
SEQEND
0
POLYLINE
8
Links
66
1
40
 5.01615293323994E-0002
41
 5.01615293323994E-0002
62
7
0
VERTEX
8
Links
10
 3.50200004577637E+0001
20
 2.04999995231628E+0000
30
0.0
42
 0.00000000000000E+0000
0
VERTEX
8
Links
10
 3.35099983215332E+0001
20
 2.45000004768372E+0000
30
0.0
42
 0.00000000000000E+0000
0
SEQEND
0
POLYLINE
8
Links
66
1
40
 5.01615293323994E-0002
41
 5.01615293323994E-0002
62
7
0
VERTEX
8
Links
10
 3.30099983215332E+0001
20
 3.00999999046326E+0000
30
0.0
42
 0.00000000000000E+0000
0
VERTEX
8
Links
10
 3.35099983215332E+0001
20
 2.45000004768372E+0000
30
0.0
42
 0.00000000000000E+0000
0
SEQEND
0
POLYLINE
8
Links
66
1
40
 5.01615293323994E-0002
41
 5.01615293323994E-0002
62
7
0
VERTEX
8
Links
10
 3.35099983215332E+0001
20
 2.45000004768372E+0000
30
0.0
42
 0.00000000000000E+0000
0
VERTEX
8
Links
10
 3.21699981689453E+0001
20
 1.87999999523163E+0000
30
0.0
42
 0.00000000000000E+0000
0
SEQEND
0
POLYLINE
8
Links
66
1
40
 5.01615293323994E-0002
41
 5.01615293323994E-0002
62
7
0
VERTEX
8
Links
10
 3.35099983215332E+0001
20
 2.45000004768372E+0000
30
0.0
42
 0.00000000000000E+0000
0
VERTEX
8
Links
10
 3.41500015258789E+0001
20
 1.10000002384186E+0000
30
0.0
42
 0.00000000000000E+0000
0
SEQEND
0
POLYLINE
8
Links
66
1
40
 5.01615293323994E-0002
41
 5.01615293323994E-0002
62
7
0
VERTEX
8
Links
10
 3.50200004577637E+0001
20
 1.80999994277954E+0000
30
0.0
42
 0.00000000000000E+0000
0
VERTEX
8
Links
10
 3.41500015258789E+0001
20
 1.10000002384186E+0000
30
0.0
42
 0.00000000000000E+0000
0
SEQEND
0
POLYLINE
8
Links
66
1
40
 5.01615293323994E-0002
41
 5.01615293323994E-0002
62
7
0
VERTEX
8
Links
10
 2.20799999237061E+0001
20
 2.31000003814697E+0001
30
0.0
42
 0.00000000000000E+0000
0
VERTEX
8
Links
10
 2.11700000762939E+0001
20
 2.33199996948242E+0001
30
0.0
42
 0.00000000000000E+0000
0
SEQEND
0
POLYLINE
8
Links
66
1
40
 5.01615293323994E-0002
41
 5.01615293323994E-0002
62
7
0
VERTEX
8
Links
10
 2.11700000762939E+0001
20
 2.33199996948242E+0001
30
0.0
42
 0.00000000000000E+0000
0
VERTEX
8
Links
10
 2.07999992370605E+0001
20
 2.33999996185303E+0001
30
0.0
42
 0.00000000000000E+0000
0
SEQEND
0
POLYLINE
8
Links
66
1
40
 5.01615293323994E-0002
41
 5.01615293323994E-0002
62
7
0
VERTEX
8
Links
10
 2.07999992370605E+0001
20
 2.33999996185303E+0001
30
0.0
42
 0.00000000000000E+0000
0
VERTEX
8
Links
10
 2.03199996948242E+0001
20
 2.15699996948242E+0001
30
0.0
42
 0.00000000000000E+0000
0
SEQEND
0
POLYLINE
8
Links
66
1
40
 5.01615293323994E-0002
41
 5.01615293323994E-0002
62
7
0
VERTEX
8
Links
10
 2.11700000762939E+0001
20
 2.33199996948242E+0001
30
0.0
42
 0.00000000000000E+0000
0
VERTEX
8
Links
10
 2.07900009155273E+0001
20
 2.14500007629395E+0001
30
0.0
42
 0.00000000000000E+0000
0
SEQEND
0
POLYLINE
8
Links
66
1
40
 5.01615293323994E-0002
41
 5.01615293323994E-0002
62
7
0
VERTEX
8
Links
10
 2.16900005340576E+0001
20
 2.12800006866455E+0001
30
0.0
42
 0.00000000000000E+0000
0
VERTEX
8
Links
10
 2.07900009155273E+0001
20
 2.14500007629395E+0001
30
0.0
42
 0.00000000000000E+0000
0
SEQEND
0
POLYLINE
8
Links
66
1
40
 5.01615293323994E-0002
41
 5.01615293323994E-0002
62
7
0
VERTEX
8
Links
10
 2.07900009155273E+0001
20
 2.14500007629395E+0001
30
0.0
42
 0.00000000000000E+0000
0
VERTEX
8
Links
10
 2.03199996948242E+0001
20
 2.15699996948242E+0001
30
0.0
42
 0.00000000000000E+0000
0
SEQEND
0
POLYLINE
8
Links
66
1
40
 5.01615293323994E-0002
41
 5.01615293323994E-0002
62
7
0
VERTEX
8
Links
10
 2.53899993896484E+0001
20
 1.36000003814697E+0001
30
0.0
42
 0.00000000000000E+0000
0
VERTEX
8
Links
10
 2.33799991607666E+0001
20
 1.29499998092651E+0001
30
0.0
42
 0.00000000000000E+0000
0
SEQEND
0
POLYLINE
8
Links
66
1
40
 5.01615293323994E-0002
41
 5.01615293323994E-0002
62
7
0
VERTEX
8
Links
10
 2.28799991607666E+0001
20
 1.43500003814697E+0001
30
0.0
42
 0.00000000000000E+0000
0
VERTEX
8
Links
10
 2.33799991607666E+0001
20
 1.29499998092651E+0001
30
0.0
42
 0.00000000000000E+0000
0
SEQEND
0
POLYLINE
8
Links
66
1
40
 5.01615293323994E-0002
41
 5.01615293323994E-0002
62
7
0
VERTEX
8
Links
10
 2.50300006866455E+0001
20
 1.21400003433228E+0001
30
0.0
42
 0.00000000000000E+0000
0
VERTEX
8
Links
10
 2.41499996185303E+0001
20
 1.13699998855591E+0001
30
0.0
42
 0.00000000000000E+0000
0
SEQEND
0
POLYLINE
8
Links
66
1
40
 5.01615293323994E-0002
41
 5.01615293323994E-0002
62
7
0
VERTEX
8
Links
10
 2.57199993133545E+0001
20
 1.07399997711182E+0001
30
0.0
42
 0.00000000000000E+0000
0
VERTEX
8
Links
10
 2.59699993133545E+0001
20
 1.10000000000000E+0001
30
0.0
42
 0.00000000000000E+0000
0
SEQEND
0
POLYLINE
8
Links
66
1
40
 5.01615293323994E-0002
41
 5.01615293323994E-0002
62
7
0
VERTEX
8
Links
10
 2.91599998474121E+0001
20
 7.38000011444092E+0000
30
0.0
42
 0.00000000000000E+0000
0
VERTEX
8
Links
10
 3.10699996948242E+0001
20
 8.28999996185303E+0000
30
0.0
42
 0.00000000000000E+0000
0
SEQEND
0
POLYLINE
8
Links
66
1
40
 5.01615293323994E-0002
41
 5.01615293323994E-0002
62
7
0
VERTEX
8
Links
10
 2.91599998474121E+0001
20
 7.38000011444092E+0000
30
0.0
42
 0.00000000000000E+0000
0
VERTEX
8
Links
10
 2.92000007629395E+0001
20
 6.46000003814697E+0000
30
0.0
42
 0.00000000000000E+0000
0
SEQEND
0
POLYLINE
8
Links
66
1
40
 5.01615293323994E-0002
41
 5.01615293323994E-0002
62
7
0
VERTEX
8
Links
10
 2.53899993896484E+0001
20
 1.49799995422363E+0001
30
0.0
42
 0.00000000000000E+0000
0
VERTEX
8
Links
10
 2.53899993896484E+0001
20
 1.36000003814697E+0001
30
0.0
42
 0.00000000000000E+0000
0
SEQEND
0
POLYLINE
8
Links
66
1
40
 5.01615293323994E-0002
41
 5.01615293323994E-0002
62
7
0
VERTEX
8
Links
10
 3.08899993896484E+0001
20
 8.56999969482422E+0000
30
0.0
42
 0.00000000000000E+0000
0
VERTEX
8
Links
10
 3.10699996948242E+0001
20
 8.28999996185303E+0000
30
0.0
42
 0.00000000000000E+0000
0
SEQEND
0
POLYLINE
8
Links
66
1
40
 5.01615293323994E-0002
41
 5.01615293323994E-0002
62
7
0
VERTEX
8
Links
10
 2.50300006866455E+0001
20
 1.21400003433228E+0001
30
0.0
42
 0.00000000000000E+0000
0
VERTEX
8
Links
10
 2.59699993133545E+0001
20
 1.10000000000000E+0001
30
0.0
42
 0.00000000000000E+0000
0
SEQEND
0
POLYLINE
8
Links
66
1
40
 5.01615293323994E-0002
41
 5.01615293323994E-0002
62
7
0
VERTEX
8
Links
10
 2.37099990844727E+0001
20
 2.90300006866455E+0001
30
0.0
42
 0.00000000000000E+0000
0
VERTEX
8
Links
10
 2.33700008392334E+0001
20
 2.73099994659424E+0001
30
0.0
42
 0.00000000000000E+0000
0
SEQEND
0
POLYLINE
8
Links
66
1
40
 5.01615293323994E-0002
41
 5.01615293323994E-0002
62
7
0
VERTEX
8
Links
10
 2.38999996185303E+0001
20
 2.99400005340576E+0001
30
0.0
42
 0.00000000000000E+0000
0
VERTEX
8
Links
10
 2.30000000000000E+0001
20
 2.94899997711182E+0001
30
0.0
42
 0.00000000000000E+0000
0
SEQEND
0
POLYLINE
8
Links
66
1
40
 5.01615293323994E-0002
41
 5.01615293323994E-0002
62
7
0
VERTEX
8
Links
10
 2.30000000000000E+0001
20
 2.94899997711182E+0001
30
0.0
42
 0.00000000000000E+0000
0
VERTEX
8
Links
10
 2.37099990844727E+0001
20
 2.90300006866455E+0001
30
0.0
42
 0.00000000000000E+0000
0
SEQEND
0
POLYLINE
8
Links
66
1
40
 5.01615293323994E-0002
41
 5.01615293323994E-0002
62
7
0
VERTEX
8
Links
10
 8.00000000000000E+0000
20
 2.75300006866455E+0001
30
0.0
42
 0.00000000000000E+0000
0
VERTEX
8
Links
10
 9.00000000000000E+0000
20
 2.78500003814697E+0001
30
0.0
42
 0.00000000000000E+0000
0
SEQEND
0
POLYLINE
8
Links
66
1
40
 5.01615293323994E-0002
41
 5.01615293323994E-0002
62
7
0
VERTEX
8
Links
10
 2.38999996185303E+0001
20
 2.99400005340576E+0001
30
0.0
42
 0.00000000000000E+0000
0
VERTEX
8
Links
10
 2.37099990844727E+0001
20
 2.90300006866455E+0001
30
0.0
42
 0.00000000000000E+0000
0
SEQEND
0
POLYLINE
8
Junctions
66
1
70
1
40
 3.00969183444977E-0001
41
 3.00969183444977E-0001
62
7
0
VERTEX
8
Junctions
10
 8.84951496124268E+0000
20
 2.78500003814697E+0001
30
0.0
42
 1.00000000000000E+0000
0
VERTEX
8
Junctions
10
 9.15048503875732E+0000
20
 2.78500003814697E+0001
30
0.0
42
 1.00000000000000E+0000
0
SEQEND
0
POLYLINE
8
Junctions
66
1
70
1
40
 3.00969183444977E-0001
41
 3.00969183444977E-0001
62
7
0
VERTEX
8
Junctions
10
 3.85295143127441E+0001
20
 2.37600002288818E+0001
30
0.0
42
 1.00000000000000E+0000
0
VERTEX
8
Junctions
10
 3.88304862976074E+0001
20
 2.37600002288818E+0001
30
0.0
42
 1.00000000000000E+0000
0
SEQEND
0
POLYLINE
8
Junctions
66
1
70
1
40
 3.00969183444977E-0001
41
 3.00969183444977E-0001
62
7
0
VERTEX
8
Junctions
10
 2.92895164489746E+0001
20
 2.69099998474121E+0001
30
0.0
42
 1.00000000000000E+0000
0
VERTEX
8
Junctions
10
 2.95904846191406E+0001
20
 2.69099998474121E+0001
30
0.0
42
 1.00000000000000E+0000
0
SEQEND
0
POLYLINE
8
Junctions
66
1
70
1
40
 3.00969183444977E-0001
41
 3.00969183444977E-0001
62
7
0
VERTEX
8
Junctions
10
 2.53095149993896E+0001
20
 1.05200004577637E+0001
30
0.0
42
 1.00000000000000E+0000
0
VERTEX
8
Junctions
10
 2.56104831695557E+0001
20
 1.05200004577637E+0001
30
0.0
42
 1.00000000000000E+0000
0
SEQEND
0
POLYLINE
8
Junctions
66
1
70
1
40
 3.00969183444977E-0001
41
 3.00969183444977E-0001
62
7
0
VERTEX
8
Junctions
10
 2.68695163726807E+0001
20
 9.81000041961670E+0000
30
0.0
42
 1.00000000000000E+0000
0
VERTEX
8
Junctions
10
 2.71704845428467E+0001
20
 9.81000041961670E+0000
30
0.0
42
 1.00000000000000E+0000
0
SEQEND
0
POLYLINE
8
Junctions
66
1
70
1
40
 3.00969183444977E-0001
41
 3.00969183444977E-0001
62
7
0
VERTEX
8
Junctions
10
 3.28595123291016E+0001
20
 3.00999999046326E+0000
30
0.0
42
 1.00000000000000E+0000
0
VERTEX
8
Junctions
10
 3.31604843139648E+0001
20
 3.00999999046326E+0000
30
0.0
42
 1.00000000000000E+0000
0
SEQEND
0
POLYLINE
8
Junctions
66
1
70
1
40
 3.00969183444977E-0001
41
 3.00969183444977E-0001
62
7
0
VERTEX
8
Junctions
10
 2.37495155334473E+0001
20
 2.99400005340576E+0001
30
0.0
42
 1.00000000000000E+0000
0
VERTEX
8
Junctions
10
 2.40504837036133E+0001
20
 2.99400005340576E+0001
30
0.0
42
 1.00000000000000E+0000
0
SEQEND
0
POLYLINE
8
Junctions
66
1
70
1
40
 3.00969183444977E-0001
41
 3.00969183444977E-0001
62
7
0
VERTEX
8
Junctions
10
 2.28495159149170E+0001
20
 2.94899997711182E+0001
30
0.0
42
 1.00000000000000E+0000
0
VERTEX
8
Junctions
10
 2.31504840850830E+0001
20
 2.94899997711182E+0001
30
0.0
42
 1.00000000000000E+0000
0
SEQEND
0
POLYLINE
8
Junctions
66
1
70
1
40
 3.00969183444977E-0001
41
 3.00969183444977E-0001
62
7
0
VERTEX
8
Junctions
10
 2.35595149993896E+0001
20
 2.90300006866455E+0001
30
0.0
42
 1.00000000000000E+0000
0
VERTEX
8
Junctions
10
 2.38604831695557E+0001
20
 2.90300006866455E+0001
30
0.0
42
 1.00000000000000E+0000
0
SEQEND
0
POLYLINE
8
Junctions
66
1
70
1
40
 3.00969183444977E-0001
41
 3.00969183444977E-0001
62
7
0
VERTEX
8
Junctions
10
 1.36595153808594E+0001
20
 2.29400005340576E+0001
30
0.0
42
 1.00000000000000E+0000
0
VERTEX
8
Junctions
10
 1.39604854583740E+0001
20
 2.29400005340576E+0001
30
0.0
42
 1.00000000000000E+0000
0
SEQEND
0
POLYLINE
8
Junctions
66
1
70
1
40
 3.00969183444977E-0001
41
 3.00969183444977E-0001
62
7
0
VERTEX
8
Junctions
10
 1.28095149993896E+0001
20
 2.13099994659424E+0001
30
0.0
42
 1.00000000000000E+0000
0
VERTEX
8
Junctions
10
 1.31104850769043E+0001
20
 2.13099994659424E+0001
30
0.0
42
 1.00000000000000E+0000
0
SEQEND
0
POLYLINE
8
Junctions
66
1
70
1
40
 3.00969183444977E-0001
41
 3.00969183444977E-0001
62
7
0
VERTEX
8
Junctions
10
 1.68195152282715E+0001
20
 2.12800006866455E+0001
30
0.0
42
 1.00000000000000E+0000
0
VERTEX
8
Junctions
10
 1.71204833984375E+0001
20
 2.12800006866455E+0001
30
0.0
42
 1.00000000000000E+0000
0
SEQEND
0
POLYLINE
8
Junctions
66
1
70
1
40
 3.00969183444977E-0001
41
 3.00969183444977E-0001
62
7
0
VERTEX
8
Junctions
10
 1.82995166778564E+0001
20
 2.04599990844727E+0001
30
0.0
42
 1.00000000000000E+0000
0
VERTEX
8
Junctions
10
 1.86004848480225E+0001
20
 2.04599990844727E+0001
30
0.0
42
 1.00000000000000E+0000
0
SEQEND
0
POLYLINE
8
Junctions
66
1
70
1
40
 3.00969183444977E-0001
41
 3.00969183444977E-0001
62
7
0
VERTEX
8
Junctions
10
 1.74895153045654E+0001
20
 1.89200000762939E+0001
30
0.0
42
 1.00000000000000E+0000
0
VERTEX
8
Junctions
10
 1.77904834747314E+0001
20
 1.89200000762939E+0001
30
0.0
42
 1.00000000000000E+0000
0
SEQEND
0
POLYLINE
8
Junctions
66
1
70
1
40
 3.00969183444977E-0001
41
 3.00969183444977E-0001
62
7
0
VERTEX
8
Junctions
10
 2.00595149993896E+0001
20
 1.75300006866455E+0001
30
0.0
42
 1.00000000000000E+0000
0
VERTEX
8
Junctions
10
 2.03604831695557E+0001
20
 1.75300006866455E+0001
30
0.0
42
 1.00000000000000E+0000
0
SEQEND
0
POLYLINE
8
Junctions
66
1
70
1
40
 3.00969183444977E-0001
41
 3.00969183444977E-0001
62
7
0
VERTEX
8
Junctions
10
 2.18895168304443E+0001
20
 1.66100006103516E+0001
30
0.0
42
 1.00000000000000E+0000
0
VERTEX
8
Junctions
10
 2.21904850006104E+0001
20
 1.66100006103516E+0001
30
0.0
42
 1.00000000000000E+0000
0
SEQEND
0
POLYLINE
8
Junctions
66
1
70
1
40
 3.00969183444977E-0001
41
 3.00969183444977E-0001
62
7
0
VERTEX
8
Junctions
10
 2.08295154571533E+0001
20
 1.91800003051758E+0001
30
0.0
42
 1.00000000000000E+0000
0
VERTEX
8
Junctions
10
 2.11304836273193E+0001
20
 1.91800003051758E+0001
30
0.0
42
 1.00000000000000E+0000
0
SEQEND
0
POLYLINE
8
Junctions
66
1
70
1
40
 3.00969183444977E-0001
41
 3.00969183444977E-0001
62
7
0
VERTEX
8
Junctions
10
 2.15395164489746E+0001
20
 2.12800006866455E+0001
30
0.0
42
 1.00000000000000E+0000
0
VERTEX
8
Junctions
10
 2.18404846191406E+0001
20
 2.12800006866455E+0001
30
0.0
42
 1.00000000000000E+0000
0
SEQEND
0
POLYLINE
8
Junctions
66
1
70
1
40
 3.00969183444977E-0001
41
 3.00969183444977E-0001
62
7
0
VERTEX
8
Junctions
10
 2.35495166778564E+0001
20
 2.27600002288818E+0001
30
0.0
42
 1.00000000000000E+0000
0
VERTEX
8
Junctions
10
 2.38504848480225E+0001
20
 2.27600002288818E+0001
30
0.0
42
 1.00000000000000E+0000
0
SEQEND
0
POLYLINE
8
Junctions
66
1
70
1
40
 3.00969183444977E-0001
41
 3.00969183444977E-0001
62
7
0
VERTEX
8
Junctions
10
 2.19295158386230E+0001
20
 2.31000003814697E+0001
30
0.0
42
 1.00000000000000E+0000
0
VERTEX
8
Junctions
10
 2.22304840087891E+0001
20
 2.31000003814697E+0001
30
0.0
42
 1.00000000000000E+0000
0
SEQEND
0
POLYLINE
8
Junctions
66
1
70
1
40
 3.00969183444977E-0001
41
 3.00969183444977E-0001
62
7
0
VERTEX
8
Junctions
10
 2.33895168304443E+0001
20
 2.55000000000000E+0001
30
0.0
42
 1.00000000000000E+0000
0
VERTEX
8
Junctions
10
 2.36904850006104E+0001
20
 2.55000000000000E+0001
30
0.0
42
 1.00000000000000E+0000
0
SEQEND
0
POLYLINE
8
Junctions
66
1
70
1
40
 3.00969183444977E-0001
41
 3.00969183444977E-0001
62
7
0
VERTEX
8
Junctions
10
 2.32195167541504E+0001
20
 2.73099994659424E+0001
30
0.0
42
 1.00000000000000E+0000
0
VERTEX
8
Junctions
10
 2.35204849243164E+0001
20
 2.73099994659424E+0001
30
0.0
42
 1.00000000000000E+0000
0
SEQEND
0
POLYLINE
8
Junctions
66
1
70
1
40
 3.00969183444977E-0001
41
 3.00969183444977E-0001
62
7
0
VERTEX
8
Junctions
10
 2.44395160675049E+0001
20
 2.56399993896484E+0001
30
0.0
42
 1.00000000000000E+0000
0
VERTEX
8
Junctions
10
 2.47404842376709E+0001
20
 2.56399993896484E+0001
30
0.0
42
 1.00000000000000E+0000
0
SEQEND
0
POLYLINE
8
Junctions
66
1
70
1
40
 3.00969183444977E-0001
41
 3.00969183444977E-0001
62
7
0
VERTEX
8
Junctions
10
 2.91395168304443E+0001
20
 2.63999996185303E+0001
30
0.0
42
 1.00000000000000E+0000
0
VERTEX
8
Junctions
10
 2.94404850006104E+0001
20
 2.63999996185303E+0001
30
0.0
42
 1.00000000000000E+0000
0
SEQEND
0
POLYLINE
8
Junctions
66
1
70
1
40
 3.00969183444977E-0001
41
 3.00969183444977E-0001
62
7
0
VERTEX
8
Junctions
10
 3.01695156097412E+0001
20
 2.63899993896484E+0001
30
0.0
42
 1.00000000000000E+0000
0
VERTEX
8
Junctions
10
 3.04704837799072E+0001
20
 2.63899993896484E+0001
30
0.0
42
 1.00000000000000E+0000
0
SEQEND
0
POLYLINE
8
Junctions
66
1
70
1
40
 3.00969183444977E-0001
41
 3.00969183444977E-0001
62
7
0
VERTEX
8
Junctions
10
 3.77395133972168E+0001
20
 2.95499992370605E+0001
30
0.0
42
 1.00000000000000E+0000
0
VERTEX
8
Junctions
10
 3.80404853820801E+0001
20
 2.95499992370605E+0001
30
0.0
42
 1.00000000000000E+0000
0
SEQEND
0
POLYLINE
8
Junctions
66
1
70
1
40
 3.00969183444977E-0001
41
 3.00969183444977E-0001
62
7
0
VERTEX
8
Junctions
10
 3.31295127868652E+0001
20
 2.45400009155273E+0001
30
0.0
42
 1.00000000000000E+0000
0
VERTEX
8
Junctions
10
 3.34304847717285E+0001
20
 2.45400009155273E+0001
30
0.0
42
 1.00000000000000E+0000
0
SEQEND
0
POLYLINE
8
Junctions
66
1
70
1
40
 3.00969183444977E-0001
41
 3.00969183444977E-0001
62
7
0
VERTEX
8
Junctions
10
 3.55295143127441E+0001
20
 2.30799999237061E+0001
30
0.0
42
 1.00000000000000E+0000
0
VERTEX
8
Junctions
10
 3.58304862976074E+0001
20
 2.30799999237061E+0001
30
0.0
42
 1.00000000000000E+0000
0
SEQEND
0
POLYLINE
8
Junctions
66
1
70
1
40
 3.00969183444977E-0001
41
 3.00969183444977E-0001
62
7
0
VERTEX
8
Junctions
10
 3.73195152282715E+0001
20
 2.19699993133545E+0001
30
0.0
42
 1.00000000000000E+0000
0
VERTEX
8
Junctions
10
 3.76204872131348E+0001
20
 2.19699993133545E+0001
30
0.0
42
 1.00000000000000E+0000
0
SEQEND
0
POLYLINE
8
Junctions
66
1
70
1
40
 3.00969183444977E-0001
41
 3.00969183444977E-0001
62
7
0
VERTEX
8
Junctions
10
 3.28695144653320E+0001
20
 1.92900009155273E+0001
30
0.0
42
 1.00000000000000E+0000
0
VERTEX
8
Junctions
10
 3.31704864501953E+0001
20
 1.92900009155273E+0001
30
0.0
42
 1.00000000000000E+0000
0
SEQEND
0
POLYLINE
8
Junctions
66
1
70
1
40
 3.00969183444977E-0001
41
 3.00969183444977E-0001
62
7
0
VERTEX
8
Junctions
10
 3.00895156860352E+0001
20
 2.03799991607666E+0001
30
0.0
42
 1.00000000000000E+0000
0
VERTEX
8
Junctions
10
 3.03904838562012E+0001
20
 2.03799991607666E+0001
30
0.0
42
 1.00000000000000E+0000
0
SEQEND
0
POLYLINE
8
Junctions
66
1
70
1
40
 3.00969183444977E-0001
41
 3.00969183444977E-0001
62
7
0
VERTEX
8
Junctions
10
 2.94695167541504E+0001
20
 2.07399997711182E+0001
30
0.0
42
 1.00000000000000E+0000
0
VERTEX
8
Junctions
10
 2.97704849243164E+0001
20
 2.07399997711182E+0001
30
0.0
42
 1.00000000000000E+0000
0
SEQEND
0
POLYLINE
8
Junctions
66
1
70
1
40
 3.00969183444977E-0001
41
 3.00969183444977E-0001
62
7
0
VERTEX
8
Junctions
10
 2.81395168304443E+0001
20
 2.13899993896484E+0001
30
0.0
42
 1.00000000000000E+0000
0
VERTEX
8
Junctions
10
 2.84404850006104E+0001
20
 2.13899993896484E+0001
30
0.0
42
 1.00000000000000E+0000
0
SEQEND
0
POLYLINE
8
Junctions
66
1
70
1
40
 3.00969183444977E-0001
41
 3.00969183444977E-0001
62
7
0
VERTEX
8
Junctions
10
 2.79795150756836E+0001
20
 2.26299991607666E+0001
30
0.0
42
 1.00000000000000E+0000
0
VERTEX
8
Junctions
10
 2.82804832458496E+0001
20
 2.26299991607666E+0001
30
0.0
42
 1.00000000000000E+0000
0
SEQEND
0
POLYLINE
8
Junctions
66
1
70
1
40
 3.00969183444977E-0001
41
 3.00969183444977E-0001
62
7
0
VERTEX
8
Junctions
10
 2.46995162963867E+0001
20
 2.01599998474121E+0001
30
0.0
42
 1.00000000000000E+0000
0
VERTEX
8
Junctions
10
 2.50004844665527E+0001
20
 2.01599998474121E+0001
30
0.0
42
 1.00000000000000E+0000
0
SEQEND
0
POLYLINE
8
Junctions
66
1
70
1
40
 3.00969183444977E-0001
41
 3.00969183444977E-0001
62
7
0
VERTEX
8
Junctions
10
 2.29695167541504E+0001
20
 1.75000000000000E+0001
30
0.0
42
 1.00000000000000E+0000
0
VERTEX
8
Junctions
10
 2.32704849243164E+0001
20
 1.75000000000000E+0001
30
0.0
42
 1.00000000000000E+0000
0
SEQEND
0
POLYLINE
8
Junctions
66
1
70
1
40
 3.00969183444977E-0001
41
 3.00969183444977E-0001
62
7
0
VERTEX
8
Junctions
10
 2.49495162963867E+0001
20
 1.52799997329712E+0001
30
0.0
42
 1.00000000000000E+0000
0
VERTEX
8
Junctions
10
 2.52504844665527E+0001
20
 1.52799997329712E+0001
30
0.0
42
 1.00000000000000E+0000
0
SEQEND
0
POLYLINE
8
Junctions
66
1
70
1
40
 3.00969183444977E-0001
41
 3.00969183444977E-0001
62
7
0
VERTEX
8
Junctions
10
 2.52395153045654E+0001
20
 1.49799995422363E+0001
30
0.0
42
 1.00000000000000E+0000
0
VERTEX
8
Junctions
10
 2.55404834747314E+0001
20
 1.49799995422363E+0001
30
0.0
42
 1.00000000000000E+0000
0
SEQEND
0
POLYLINE
8
Junctions
66
1
70
1
40
 3.00969183444977E-0001
41
 3.00969183444977E-0001
62
7
0
VERTEX
8
Junctions
10
 2.58295154571533E+0001
20
 1.51400003433228E+0001
30
0.0
42
 1.00000000000000E+0000
0
VERTEX
8
Junctions
10
 2.61304836273193E+0001
20
 1.51400003433228E+0001
30
0.0
42
 1.00000000000000E+0000
0
SEQEND
0
POLYLINE
8
Junctions
66
1
70
1
40
 3.00969183444977E-0001
41
 3.00969183444977E-0001
62
7
0
VERTEX
8
Junctions
10
 2.63295154571533E+0001
20
 1.51300001144409E+0001
30
0.0
42
 1.00000000000000E+0000
0
VERTEX
8
Junctions
10
 2.66304836273193E+0001
20
 1.51300001144409E+0001
30
0.0
42
 1.00000000000000E+0000
0
SEQEND
0
POLYLINE
8
Junctions
66
1
70
1
40
 3.00969183444977E-0001
41
 3.00969183444977E-0001
62
7
0
VERTEX
8
Junctions
10
 2.57295150756836E+0001
20
 1.29799995422363E+0001
30
0.0
42
 1.00000000000000E+0000
0
VERTEX
8
Junctions
10
 2.60304832458496E+0001
20
 1.29799995422363E+0001
30
0.0
42
 1.00000000000000E+0000
0
SEQEND
0
POLYLINE
8
Junctions
66
1
70
1
40
 3.00969183444977E-0001
41
 3.00969183444977E-0001
62
7
0
VERTEX
8
Junctions
10
 2.55295162200928E+0001
20
 1.27399997711182E+0001
30
0.0
42
 1.00000000000000E+0000
0
VERTEX
8
Junctions
10
 2.58304843902588E+0001
20
 1.27399997711182E+0001
30
0.0
42
 1.00000000000000E+0000
0
SEQEND
0
POLYLINE
8
Junctions
66
1
70
1
40
 3.00969183444977E-0001
41
 3.00969183444977E-0001
62
7
0
VERTEX
8
Junctions
10
 2.64995155334473E+0001
20
 1.18000001907349E+0001
30
0.0
42
 1.00000000000000E+0000
0
VERTEX
8
Junctions
10
 2.68004837036133E+0001
20
 1.18000001907349E+0001
30
0.0
42
 1.00000000000000E+0000
0
SEQEND
0
POLYLINE
8
Junctions
66
1
70
1
40
 3.00969183444977E-0001
41
 3.00969183444977E-0001
62
7
0
VERTEX
8
Junctions
10
 2.67195167541504E+0001
20
 1.15900001525879E+0001
30
0.0
42
 1.00000000000000E+0000
0
VERTEX
8
Junctions
10
 2.70204849243164E+0001
20
 1.15900001525879E+0001
30
0.0
42
 1.00000000000000E+0000
0
SEQEND
0
POLYLINE
8
Junctions
66
1
70
1
40
 3.00969183444977E-0001
41
 3.00969183444977E-0001
62
7
0
VERTEX
8
Junctions
10
 2.55595149993896E+0001
20
 1.03999996185303E+0001
30
0.0
42
 1.00000000000000E+0000
0
VERTEX
8
Junctions
10
 2.58604831695557E+0001
20
 1.03999996185303E+0001
30
0.0
42
 1.00000000000000E+0000
0
SEQEND
0
POLYLINE
8
Junctions
66
1
70
1
40
 3.00969183444977E-0001
41
 3.00969183444977E-0001
62
7
0
VERTEX
8
Junctions
10
 2.55695152282715E+0001
20
 1.07399997711182E+0001
30
0.0
42
 1.00000000000000E+0000
0
VERTEX
8
Junctions
10
 2.58704833984375E+0001
20
 1.07399997711182E+0001
30
0.0
42
 1.00000000000000E+0000
0
SEQEND
0
POLYLINE
8
Junctions
66
1
70
1
40
 3.00969183444977E-0001
41
 3.00969183444977E-0001
62
7
0
VERTEX
8
Junctions
10
 2.52995166778564E+0001
20
 1.01800003051758E+0001
30
0.0
42
 1.00000000000000E+0000
0
VERTEX
8
Junctions
10
 2.56004848480225E+0001
20
 1.01800003051758E+0001
30
0.0
42
 1.00000000000000E+0000
0
SEQEND
0
POLYLINE
8
Junctions
66
1
70
1
40
 3.00969183444977E-0001
41
 3.00969183444977E-0001
62
7
0
VERTEX
8
Junctions
10
 2.49995155334473E+0001
20
 9.52000045776367E+0000
30
0.0
42
 1.00000000000000E+0000
0
VERTEX
8
Junctions
10
 2.53004837036133E+0001
20
 9.52000045776367E+0000
30
0.0
42
 1.00000000000000E+0000
0
SEQEND
0
POLYLINE
8
Junctions
66
1
70
1
40
 3.00969183444977E-0001
41
 3.00969183444977E-0001
62
7
0
VERTEX
8
Junctions
10
 2.48595161437988E+0001
20
 9.67000007629395E+0000
30
0.0
42
 1.00000000000000E+0000
0
VERTEX
8
Junctions
10
 2.51604843139648E+0001
20
 9.67000007629395E+0000
30
0.0
42
 1.00000000000000E+0000
0
SEQEND
0
POLYLINE
8
Junctions
66
1
70
1
40
 3.00969183444977E-0001
41
 3.00969183444977E-0001
62
7
0
VERTEX
8
Junctions
10
 2.34895153045654E+0001
20
 1.10399999618530E+0001
30
0.0
42
 1.00000000000000E+0000
0
VERTEX
8
Junctions
10
 2.37904834747314E+0001
20
 1.10399999618530E+0001
30
0.0
42
 1.00000000000000E+0000
0
SEQEND
0
POLYLINE
8
Junctions
66
1
70
1
40
 3.00969183444977E-0001
41
 3.00969183444977E-0001
62
7
0
VERTEX
8
Junctions
10
 2.39995155334473E+0001
20
 1.13699998855591E+0001
30
0.0
42
 1.00000000000000E+0000
0
VERTEX
8
Junctions
10
 2.43004837036133E+0001
20
 1.13699998855591E+0001
30
0.0
42
 1.00000000000000E+0000
0
SEQEND
0
POLYLINE
8
Junctions
66
1
70
1
40
 3.00969183444977E-0001
41
 3.00969183444977E-0001
62
7
0
VERTEX
8
Junctions
10
 2.19495162963867E+0001
20
 1.40699996948242E+0001
30
0.0
42
 1.00000000000000E+0000
0
VERTEX
8
Junctions
10
 2.22504844665527E+0001
20
 1.40699996948242E+0001
30
0.0
42
 1.00000000000000E+0000
0
SEQEND
0
POLYLINE
8
Junctions
66
1
70
1
40
 3.00969183444977E-0001
41
 3.00969183444977E-0001
62
7
0
VERTEX
8
Junctions
10
 2.27295150756836E+0001
20
 1.43500003814697E+0001
30
0.0
42
 1.00000000000000E+0000
0
VERTEX
8
Junctions
10
 2.30304832458496E+0001
20
 1.43500003814697E+0001
30
0.0
42
 1.00000000000000E+0000
0
SEQEND
0
POLYLINE
8
Junctions
66
1
70
1
40
 3.00969183444977E-0001
41
 3.00969183444977E-0001
62
7
0
VERTEX
8
Junctions
10
 2.30295162200928E+0001
20
 1.47200002670288E+0001
30
0.0
42
 1.00000000000000E+0000
0
VERTEX
8
Junctions
10
 2.33304843902588E+0001
20
 1.47200002670288E+0001
30
0.0
42
 1.00000000000000E+0000
0
SEQEND
0
POLYLINE
8
Junctions
66
1
70
1
40
 3.00969183444977E-0001
41
 3.00969183444977E-0001
62
7
0
VERTEX
8
Junctions
10
 2.08195152282715E+0001
20
 1.51800003051758E+0001
30
0.0
42
 1.00000000000000E+0000
0
VERTEX
8
Junctions
10
 2.11204833984375E+0001
20
 1.51800003051758E+0001
30
0.0
42
 1.00000000000000E+0000
0
SEQEND
0
POLYLINE
8
Junctions
66
1
70
1
40
 3.00969183444977E-0001
41
 3.00969183444977E-0001
62
7
0
VERTEX
8
Junctions
10
 2.92695159912109E+0001
20
 8.43999958038330E+0000
30
0.0
42
 1.00000000000000E+0000
0
VERTEX
8
Junctions
10
 2.95704841613770E+0001
20
 8.43999958038330E+0000
30
0.0
42
 1.00000000000000E+0000
0
SEQEND
0
POLYLINE
8
Junctions
66
1
70
1
40
 3.00969183444977E-0001
41
 3.00969183444977E-0001
62
7
0
VERTEX
8
Junctions
10
 3.07395153045654E+0001
20
 8.56999969482422E+0000
30
0.0
42
 1.00000000000000E+0000
0
VERTEX
8
Junctions
10
 3.10404834747314E+0001
20
 8.56999969482422E+0000
30
0.0
42
 1.00000000000000E+0000
0
SEQEND
0
POLYLINE
8
Junctions
66
1
70
1
40
 3.00969183444977E-0001
41
 3.00969183444977E-0001
62
7
0
VERTEX
8
Junctions
10
 3.09895153045654E+0001
20
 8.89000034332275E+0000
30
0.0
42
 1.00000000000000E+0000
0
VERTEX
8
Junctions
10
 3.12904834747314E+0001
20
 8.89000034332275E+0000
30
0.0
42
 1.00000000000000E+0000
0
SEQEND
0
POLYLINE
8
Junctions
66
1
70
1
40
 3.00969183444977E-0001
41
 3.00969183444977E-0001
62
7
0
VERTEX
8
Junctions
10
 2.36495151519775E+0001
20
 1.08999996185303E+0001
30
0.0
42
 1.00000000000000E+0000
0
VERTEX
8
Junctions
10
 2.39504833221436E+0001
20
 1.08999996185303E+0001
30
0.0
42
 1.00000000000000E+0000
0
SEQEND
0
POLYLINE
8
Junctions
66
1
70
1
40
 3.00969183444977E-0001
41
 3.00969183444977E-0001
62
7
0
VERTEX
8
Junctions
10
 2.90495166778564E+0001
20
 6.46000003814697E+0000
30
0.0
42
 1.00000000000000E+0000
0
VERTEX
8
Junctions
10
 2.93504848480225E+0001
20
 6.46000003814697E+0000
30
0.0
42
 1.00000000000000E+0000
0
SEQEND
0
POLYLINE
8
Junctions
66
1
70
1
40
 3.00969183444977E-0001
41
 3.00969183444977E-0001
62
7
0
VERTEX
8
Junctions
10
 3.15095157623291E+0001
20
 6.63999986648560E+0000
30
0.0
42
 1.00000000000000E+0000
0
VERTEX
8
Junctions
10
 3.18104839324951E+0001
20
 6.63999986648560E+0000
30
0.0
42
 1.00000000000000E+0000
0
SEQEND
0
POLYLINE
8
Junctions
66
1
70
1
40
 3.00969183444977E-0001
41
 3.00969183444977E-0001
62
7
0
VERTEX
8
Junctions
10
 3.08495159149170E+0001
20
 6.61000013351440E+0000
30
0.0
42
 1.00000000000000E+0000
0
VERTEX
8
Junctions
10
 3.11504840850830E+0001
20
 6.61000013351440E+0000
30
0.0
42
 1.00000000000000E+0000
0
SEQEND
0
POLYLINE
8
Junctions
66
1
70
1
40
 3.00969183444977E-0001
41
 3.00969183444977E-0001
62
7
0
VERTEX
8
Junctions
10
 3.23895149230957E+0001
20
 6.80999994277954E+0000
30
0.0
42
 1.00000000000000E+0000
0
VERTEX
8
Junctions
10
 3.26904869079590E+0001
20
 6.80999994277954E+0000
30
0.0
42
 1.00000000000000E+0000
0
SEQEND
0
POLYLINE
8
Junctions
66
1
70
1
40
 3.00969183444977E-0001
41
 3.00969183444977E-0001
62
7
0
VERTEX
8
Junctions
10
 3.36095123291016E+0001
20
 6.59000015258789E+0000
30
0.0
42
 1.00000000000000E+0000
0
VERTEX
8
Junctions
10
 3.39104843139648E+0001
20
 6.59000015258789E+0000
30
0.0
42
 1.00000000000000E+0000
0
SEQEND
0
POLYLINE
8
Junctions
66
1
70
1
40
 3.00969183444977E-0001
41
 3.00969183444977E-0001
62
7
0
VERTEX
8
Junctions
10
 3.40495147705078E+0001
20
 5.53999996185303E+0000
30
0.0
42
 1.00000000000000E+0000
0
VERTEX
8
Junctions
10
 3.43504867553711E+0001
20
 5.53999996185303E+0000
30
0.0
42
 1.00000000000000E+0000
0
SEQEND
0
POLYLINE
8
Junctions
66
1
70
1
40
 3.00969183444977E-0001
41
 3.00969183444977E-0001
62
7
0
VERTEX
8
Junctions
10
 3.51095123291016E+0001
20
 6.15999984741211E+0000
30
0.0
42
 1.00000000000000E+0000
0
VERTEX
8
Junctions
10
 3.54104843139648E+0001
20
 6.15999984741211E+0000
30
0.0
42
 1.00000000000000E+0000
0
SEQEND
0
POLYLINE
8
Junctions
66
1
70
1
40
 3.00969183444977E-0001
41
 3.00969183444977E-0001
62
7
0
VERTEX
8
Junctions
10
 3.97995147705078E+0001
20
 8.72999954223633E+0000
30
0.0
42
 1.00000000000000E+0000
0
VERTEX
8
Junctions
10
 4.01004867553711E+0001
20
 8.72999954223633E+0000
30
0.0
42
 1.00000000000000E+0000
0
SEQEND
0
POLYLINE
8
Junctions
66
1
70
1
40
 3.00969183444977E-0001
41
 3.00969183444977E-0001
62
7
0
VERTEX
8
Junctions
10
 4.19595146179199E+0001
20
 8.67000007629395E+0000
30
0.0
42
 1.00000000000000E+0000
0
VERTEX
8
Junctions
10
 4.22604866027832E+0001
20
 8.67000007629395E+0000
30
0.0
42
 1.00000000000000E+0000
0
SEQEND
0
POLYLINE
8
Junctions
66
1
70
1
40
 3.00969183444977E-0001
41
 3.00969183444977E-0001
62
7
0
VERTEX
8
Junctions
10
 4.47095146179199E+0001
20
 9.31999969482422E+0000
30
0.0
42
 1.00000000000000E+0000
0
VERTEX
8
Junctions
10
 4.50104866027832E+0001
20
 9.31999969482422E+0000
30
0.0
42
 1.00000000000000E+0000
0
SEQEND
0
POLYLINE
8
Junctions
66
1
70
1
40
 3.00969183444977E-0001
41
 3.00969183444977E-0001
62
7
0
VERTEX
8
Junctions
10
 4.33795127868652E+0001
20
 7.38000011444092E+0000
30
0.0
42
 1.00000000000000E+0000
0
VERTEX
8
Junctions
10
 4.36804847717285E+0001
20
 7.38000011444092E+0000
30
0.0
42
 1.00000000000000E+0000
0
SEQEND
0
POLYLINE
8
Junctions
66
1
70
1
40
 3.00969183444977E-0001
41
 3.00969183444977E-0001
62
7
0
VERTEX
8
Junctions
10
 3.60095138549805E+0001
20
 3.49000000953674E+0000
30
0.0
42
 1.00000000000000E+0000
0
VERTEX
8
Junctions
10
 3.63104858398438E+0001
20
 3.49000000953674E+0000
30
0.0
42
 1.00000000000000E+0000
0
SEQEND
0
POLYLINE
8
Junctions
66
1
70
1
40
 3.00969183444977E-0001
41
 3.00969183444977E-0001
62
7
0
VERTEX
8
Junctions
10
 3.82295150756836E+0001
20
 2.53999996185303E+0000
30
0.0
42
 1.00000000000000E+0000
0
VERTEX
8
Junctions
10
 3.85304870605469E+0001
20
 2.53999996185303E+0000
30
0.0
42
 1.00000000000000E+0000
0
SEQEND
0
POLYLINE
8
Junctions
66
1
70
1
40
 3.00969183444977E-0001
41
 3.00969183444977E-0001
62
7
0
VERTEX
8
Junctions
10
 3.52195129394531E+0001
20
 3.07999992370605E+0000
30
0.0
42
 1.00000000000000E+0000
0
VERTEX
8
Junctions
10
 3.55204849243164E+0001
20
 3.07999992370605E+0000
30
0.0
42
 1.00000000000000E+0000
0
SEQEND
0
POLYLINE
8
Junctions
66
1
70
1
40
 3.00969183444977E-0001
41
 3.00969183444977E-0001
62
7
0
VERTEX
8
Junctions
10
 3.56095123291016E+0001
20
 2.30999994277954E+0000
30
0.0
42
 1.00000000000000E+0000
0
VERTEX
8
Junctions
10
 3.59104843139648E+0001
20
 2.30999994277954E+0000
30
0.0
42
 1.00000000000000E+0000
0
SEQEND
0
POLYLINE
8
Junctions
66
1
70
1
40
 3.00969183444977E-0001
41
 3.00969183444977E-0001
62
7
0
VERTEX
8
Junctions
10
 3.57195129394531E+0001
20
 2.10999989509583E+0000
30
0.0
42
 1.00000000000000E+0000
0
VERTEX
8
Junctions
10
 3.60204849243164E+0001
20
 2.10999989509583E+0000
30
0.0
42
 1.00000000000000E+0000
0
SEQEND
0
POLYLINE
8
Junctions
66
1
70
1
40
 3.00969183444977E-0001
41
 3.00969183444977E-0001
62
7
0
VERTEX
8
Junctions
10
 3.68895149230957E+0001
20
 0.00000000000000E+0000
30
0.0
42
 1.00000000000000E+0000
0
VERTEX
8
Junctions
10
 3.71904869079590E+0001
20
 0.00000000000000E+0000
30
0.0
42
 1.00000000000000E+0000
0
SEQEND
0
POLYLINE
8
Junctions
66
1
70
1
40
 3.00969183444977E-0001
41
 3.00969183444977E-0001
62
7
0
VERTEX
8
Junctions
10
 3.48695144653320E+0001
20
 2.04999995231628E+0000
30
0.0
42
 1.00000000000000E+0000
0
VERTEX
8
Junctions
10
 3.51704864501953E+0001
20
 2.04999995231628E+0000
30
0.0
42
 1.00000000000000E+0000
0
SEQEND
0
POLYLINE
8
Junctions
66
1
70
1
40
 3.00969183444977E-0001
41
 3.00969183444977E-0001
62
7
0
VERTEX
8
Junctions
10
 3.48695144653320E+0001
20
 1.80999994277954E+0000
30
0.0
42
 1.00000000000000E+0000
0
VERTEX
8
Junctions
10
 3.51704864501953E+0001
20
 1.80999994277954E+0000
30
0.0
42
 1.00000000000000E+0000
0
SEQEND
0
POLYLINE
8
Junctions
66
1
70
1
40
 3.00969183444977E-0001
41
 3.00969183444977E-0001
62
7
0
VERTEX
8
Junctions
10
 3.39995155334473E+0001
20
 1.10000002384186E+0000
30
0.0
42
 1.00000000000000E+0000
0
VERTEX
8
Junctions
10
 3.43004875183105E+0001
20
 1.10000002384186E+0000
30
0.0
42
 1.00000000000000E+0000
0
SEQEND
0
POLYLINE
8
Junctions
66
1
70
1
40
 3.00969183444977E-0001
41
 3.00969183444977E-0001
62
7
0
VERTEX
8
Junctions
10
 3.20195121765137E+0001
20
 1.87999999523163E+0000
30
0.0
42
 1.00000000000000E+0000
0
VERTEX
8
Junctions
10
 3.23204841613770E+0001
20
 1.87999999523163E+0000
30
0.0
42
 1.00000000000000E+0000
0
SEQEND
0
POLYLINE
8
Junctions
66
1
70
1
40
 3.00969183444977E-0001
41
 3.00969183444977E-0001
62
7
0
VERTEX
8
Junctions
10
 3.33595123291016E+0001
20
 2.45000004768372E+0000
30
0.0
42
 1.00000000000000E+0000
0
VERTEX
8
Junctions
10
 3.36604843139648E+0001
20
 2.45000004768372E+0000
30
0.0
42
 1.00000000000000E+0000
0
SEQEND
0
POLYLINE
8
Junctions
66
1
70
1
40
 3.00969183444977E-0001
41
 3.00969183444977E-0001
62
7
0
VERTEX
8
Junctions
10
 2.10195159912109E+0001
20
 2.33199996948242E+0001
30
0.0
42
 1.00000000000000E+0000
0
VERTEX
8
Junctions
10
 2.13204841613770E+0001
20
 2.33199996948242E+0001
30
0.0
42
 1.00000000000000E+0000
0
SEQEND
0
POLYLINE
8
Junctions
66
1
70
1
40
 3.00969183444977E-0001
41
 3.00969183444977E-0001
62
7
0
VERTEX
8
Junctions
10
 2.06495151519775E+0001
20
 2.33999996185303E+0001
30
0.0
42
 1.00000000000000E+0000
0
VERTEX
8
Junctions
10
 2.09504833221436E+0001
20
 2.33999996185303E+0001
30
0.0
42
 1.00000000000000E+0000
0
SEQEND
0
POLYLINE
8
Junctions
66
1
70
1
40
 3.00969183444977E-0001
41
 3.00969183444977E-0001
62
7
0
VERTEX
8
Junctions
10
 2.06395168304443E+0001
20
 2.14500007629395E+0001
30
0.0
42
 1.00000000000000E+0000
0
VERTEX
8
Junctions
10
 2.09404850006104E+0001
20
 2.14500007629395E+0001
30
0.0
42
 1.00000000000000E+0000
0
SEQEND
0
POLYLINE
8
Junctions
66
1
70
1
40
 3.00969183444977E-0001
41
 3.00969183444977E-0001
62
7
0
VERTEX
8
Junctions
10
 2.01695156097412E+0001
20
 2.15699996948242E+0001
30
0.0
42
 1.00000000000000E+0000
0
VERTEX
8
Junctions
10
 2.04704837799072E+0001
20
 2.15699996948242E+0001
30
0.0
42
 1.00000000000000E+0000
0
SEQEND
0
POLYLINE
8
Junctions
66
1
70
1
40
 3.00969183444977E-0001
41
 3.00969183444977E-0001
62
7
0
VERTEX
8
Junctions
10
 2.52395153045654E+0001
20
 1.36000003814697E+0001
30
0.0
42
 1.00000000000000E+0000
0
VERTEX
8
Junctions
10
 2.55404834747314E+0001
20
 1.36000003814697E+0001
30
0.0
42
 1.00000000000000E+0000
0
SEQEND
0
POLYLINE
8
Junctions
66
1
70
1
40
 3.00969183444977E-0001
41
 3.00969183444977E-0001
62
7
0
VERTEX
8
Junctions
10
 2.32295150756836E+0001
20
 1.29499998092651E+0001
30
0.0
42
 1.00000000000000E+0000
0
VERTEX
8
Junctions
10
 2.35304832458496E+0001
20
 1.29499998092651E+0001
30
0.0
42
 1.00000000000000E+0000
0
SEQEND
0
POLYLINE
8
Junctions
66
1
70
1
40
 3.00969183444977E-0001
41
 3.00969183444977E-0001
62
7
0
VERTEX
8
Junctions
10
 2.48795166015625E+0001
20
 1.21400003433228E+0001
30
0.0
42
 1.00000000000000E+0000
0
VERTEX
8
Junctions
10
 2.51804847717285E+0001
20
 1.21400003433228E+0001
30
0.0
42
 1.00000000000000E+0000
0
SEQEND
0
POLYLINE
8
Junctions
66
1
70
1
40
 3.00969183444977E-0001
41
 3.00969183444977E-0001
62
7
0
VERTEX
8
Junctions
10
 2.58195152282715E+0001
20
 1.10000000000000E+0001
30
0.0
42
 1.00000000000000E+0000
0
VERTEX
8
Junctions
10
 2.61204833984375E+0001
20
 1.10000000000000E+0001
30
0.0
42
 1.00000000000000E+0000
0
SEQEND
0
POLYLINE
8
Junctions
66
1
70
1
40
 3.00969183444977E-0001
41
 3.00969183444977E-0001
62
7
0
VERTEX
8
Junctions
10
 2.90095157623291E+0001
20
 7.38000011444092E+0000
30
0.0
42
 1.00000000000000E+0000
0
VERTEX
8
Junctions
10
 2.93104839324951E+0001
20
 7.38000011444092E+0000
30
0.0
42
 1.00000000000000E+0000
0
SEQEND
0
POLYLINE
8
Junctions
66
1
70
1
40
 3.00969183444977E-0001
41
 3.00969183444977E-0001
62
7
0
VERTEX
8
Junctions
10
 3.09195156097412E+0001
20
 8.28999996185303E+0000
30
0.0
42
 1.00000000000000E+0000
0
VERTEX
8
Junctions
10
 3.12204837799072E+0001
20
 8.28999996185303E+0000
30
0.0
42
 1.00000000000000E+0000
0
SEQEND
0
SOLID
8
Tanks
10
 2.38490295410156E+0001
20
 3.09095153808594E+0001
30
0.0
11
 2.44509696960449E+0001
21
 3.09095153808594E+0001
31
0.0
12
 2.38490295410156E+0001
22
 3.12104835510254E+0001
32
0.0
13
 2.44509696960449E+0001
23
 3.12104835510254E+0001
33
0.0
62
7
0
POLYLINE
8
Tanks
66
1
40
 5.01615293323994E-0002
41
 5.01615293323994E-0002
62
7
0
VERTEX
8
Tanks
10
 2.38490295410156E+0001
20
 3.13609695434570E+0001
30
0.0
42
 0.00000000000000E+0000
0
VERTEX
8
Tanks
10
 2.38490295410156E+0001
20
 3.09095153808594E+0001
30
0.0
42
 0.00000000000000E+0000
0
SEQEND
0
POLYLINE
8
Tanks
66
1
40
 5.01615293323994E-0002
41
 5.01615293323994E-0002
62
7
0
VERTEX
8
Tanks
10
 2.44509696960449E+0001
20
 3.13609695434570E+0001
30
0.0
42
 0.00000000000000E+0000
0
VERTEX
8
Tanks
10
 2.44509696960449E+0001
20
 3.09095153808594E+0001
30
0.0
42
 0.00000000000000E+0000
0
SEQEND
0
SOLID
8
Tanks
10
 7.69903087615967E+0000
20
 2.73795166015625E+0001
30
0.0
11
 8.30096912384033E+0000
21
 2.73795166015625E+0001
31
0.0
12
 7.69903087615967E+0000
22
 2.76804847717285E+0001
32
0.0
13
 8.30096912384033E+0000
23
 2.76804847717285E+0001
33
0.0
62
7
0
POLYLINE
8
Tanks
66
1
40
 5.01615293323994E-0002
41
 5.01615293323994E-0002
62
7
0
VERTEX
8
Tanks
10
 7.69903087615967E+0000
20
 2.78309707641602E+0001
30
0.0
42
 0.00000000000000E+0000
0
VERTEX
8
Tanks
10
 7.69903087615967E+0000
20
 2.73795166015625E+0001
30
0.0
42
 0.00000000000000E+0000
0
SEQEND
0
POLYLINE
8
Tanks
66
1
40
 5.01615293323994E-0002
41
 5.01615293323994E-0002
62
7
0
VERTEX
8
Tanks
10
 8.30096912384033E+0000
20
 2.78309707641602E+0001
30
0.0
42
 0.00000000000000E+0000
0
VERTEX
8
Tanks
10
 8.30096912384033E+0000
20
 2.73795166015625E+0001
30
0.0
42
 0.00000000000000E+0000
0
SEQEND
0
SOLID
8
Tanks
10
 2.71590290069580E+0001
20
 9.84000015258789E+0000
30
0.0
11
 2.77609691619873E+0001
21
 9.84000015258789E+0000
31
0.0
12
 2.71590290069580E+0001
22
 1.01409692764282E+0001
32
0.0
13
 2.77609691619873E+0001
23
 1.01409692764282E+0001
33
0.0
62
7
0
SOLID
8
Tanks
10
 2.73095149993896E+0001
20
 9.84000015258789E+0000
30
0.0
11
 2.76104831695557E+0001
21
 9.84000015258789E+0000
31
0.0
12
 2.73095149993896E+0001
22
 9.53903102874756E+0000
32
0.0
13
 2.76104831695557E+0001
23
 9.53903102874756E+0000
33
0.0
62
7
0
SOLID
8
Tanks
10
 3.26890335083008E+0001
20
 3.45000004768372E+0000
30
0.0
11
 3.32909698486328E+0001
21
 3.45000004768372E+0000
31
0.0
12
 3.26890335083008E+0001
22
 3.75096917152405E+0000
32
0.0
13
 3.32909698486328E+0001
23
 3.75096917152405E+0000
33
0.0
62
7
0
SOLID
8
Tanks
10
 3.28395156860352E+0001
20
 3.45000004768372E+0000
30
0.0
11
 3.31404876708984E+0001
21
 3.45000004768372E+0000
31
0.0
12
 3.28395156860352E+0001
22
 3.14903092384338E+0000
32
0.0
13
 3.31404876708984E+0001
23
 3.14903092384338E+0000
33
0.0
62
7
0
SOLID
8
Tanks
10
 2.91090297698975E+0001
20
 2.72700004577637E+0001
30
0.0
11
 2.97109699249268E+0001
21
 2.72700004577637E+0001
31
0.0
12
 2.91090297698975E+0001
22
 2.75709705352783E+0001
32
0.0
13
 2.97109699249268E+0001
23
 2.75709705352783E+0001
33
0.0
62
7
0
SOLID
8
Tanks
10
 2.92595157623291E+0001
20
 2.72700004577637E+0001
30
0.0
11
 2.95604839324951E+0001
21
 2.72700004577637E+0001
31
0.0
12
 2.92595157623291E+0001
22
 2.69690303802490E+0001
32
0.0
13
 2.95604839324951E+0001
23
 2.69690303802490E+0001
33
0.0
62
7
0
TEXT
8
Labels
10
 8.00000000000000E+0000
20
 2.88180618286133E+0001
30
0.0
40
 4.51453775167465E-0001
1
LAKE
50
 0.00000000000000E+0000
0
TEXT
8
Labels
10
 2.50000000000000E+0001
20
 3.04980621337891E+0001
30
0.0
40
 4.51453775167465E-0001
1
RIVER
50
 0.00000000000000E+0000
0
ENDSEC
0
EOF
